<svg width="20" height="20" viewBox="0 0 20 20" fill="none" xmlns="http://www.w3.org/2000/svg">
<path d="M3.13497 6.89004C4.06797 6.16504 4.84197 6.66504 5.87497 7.86104C5.99097 7.99604 6.14697 7.83804 6.23597 7.76104C6.32397 7.68304 7.68697 6.45604 7.75397 6.40004C7.81997 6.34104 7.89997 6.23104 7.79497 6.10804C7.54204 5.79519 7.29434 5.47814 7.05197 5.15704C5.24397 2.79204 11.998 1.18804 10.961 1.16304C10.433 1.14904 8.31497 1.12404 7.99797 1.15904C6.71497 1.29404 5.10397 2.49304 4.29297 3.05204C3.23197 3.77804 2.83597 4.20404 2.77097 4.26304C2.47097 4.52504 2.72297 5.13004 2.17897 5.60704C1.60397 6.11004 1.24497 5.72904 0.911971 6.02104C0.746971 6.16704 0.284971 6.51304 0.152971 6.62804C0.0199706 6.74504 -0.00402939 6.94204 0.131971 7.09904C0.131971 7.09904 1.39597 8.49504 1.50197 8.61904C1.60697 8.74104 1.89297 8.84704 2.06897 8.69004C2.24597 8.53404 2.70097 8.13704 2.77697 8.06704C2.85497 8.00104 2.72697 7.20604 3.13497 6.89004ZM8.84297 7.40704C8.72297 7.26804 8.57397 7.26404 8.44597 7.37804L7.01197 8.63004C6.95661 8.68028 6.92287 8.75001 6.91783 8.8246C6.9128 8.89919 6.93686 8.97282 6.98497 9.03004L15.279 18.469C15.473 18.692 15.809 18.715 16.03 18.522L17 17.709C17.1067 17.615 17.1721 17.4827 17.1818 17.3407C17.1916 17.1988 17.1449 17.0588 17.052 16.951L8.84297 7.40704ZM19.902 3.39004C19.828 2.89604 19.572 2.99904 19.439 3.20804C19.306 3.41904 18.718 4.31004 18.476 4.71404C18.236 5.11404 17.644 5.90504 16.542 5.12404C15.394 4.31304 15.793 3.74704 15.993 3.36604C16.194 2.98304 16.811 1.90904 16.9 1.77604C16.989 1.64104 16.885 1.24904 16.529 1.41304C16.172 1.57704 14.006 2.43804 13.706 3.67304C13.399 4.92904 13.963 6.05204 12.856 7.16704L11.513 8.56704L12.862 10.133L14.516 8.56304C14.91 8.16704 15.752 7.78204 16.514 7.95604C18.147 8.32504 19.038 7.71204 19.575 6.69804C20.057 5.79204 19.977 3.88404 19.902 3.39004ZM2.73897 17.053C2.63894 17.1538 2.58281 17.2901 2.58281 17.432C2.58281 17.574 2.63894 17.7103 2.73897 17.811L3.68997 18.741C3.89797 18.95 4.22797 18.862 4.43597 18.653L9.34297 13.829L7.83997 12.115L2.73897 17.053Z" fill="white"/>
</svg>
