<svg width="22" height="17" viewBox="0 0 22 17" fill="none" xmlns="http://www.w3.org/2000/svg">
<g clip-path="url(#clip0_1_1759)">
<path d="M14.1346 8.50001C13.5734 8.50001 13.0455 8.20118 12.76 7.72305L10.625 4.1836L8.49336 7.72305C8.20449 8.2045 7.67657 8.50333 7.11543 8.50333C6.96602 8.50333 6.8166 8.4834 6.67383 8.44024L2.125 7.13868V13.0488C2.125 13.5369 2.45703 13.9619 2.92852 14.0781L10.107 15.8744C10.4457 15.9574 10.801 15.9574 11.1363 15.8744L18.3215 14.0781C18.793 13.9586 19.125 13.5336 19.125 13.0488V7.13868L14.5762 8.43692C14.4334 8.48008 14.284 8.50001 14.1346 8.50001ZM21.1936 4.77462L19.4836 1.36133C19.3807 1.15548 19.1582 1.03594 18.9291 1.06583L10.625 2.12501L13.6697 7.1752C13.7959 7.38438 14.0482 7.48399 14.284 7.41758L20.8549 5.54161C21.1836 5.44532 21.343 5.08008 21.1936 4.77462ZM1.76641 1.36133L0.0564469 4.77462C-0.0962875 5.08008 0.0664078 5.44532 0.391798 5.53829L6.9627 7.41426C7.19844 7.48067 7.45078 7.38106 7.57696 7.17188L10.625 2.12501L2.31758 1.06583C2.08848 1.03926 1.86934 1.15548 1.76641 1.36133Z" fill="#FAE013"/>
</g>
<defs>
<clipPath id="clip0_1_1759">
<rect width="21.25" height="17" fill="white"/>
</clipPath>
</defs>
</svg>
