<svg width="20" height="20" viewBox="0 0 20 20" fill="none" xmlns="http://www.w3.org/2000/svg">
<path d="M16.9999 5.94999V16.301C16.9999 16.823 16.5479 17.072 15.9999 17.461C15.5599 17.774 14.9999 17.386 14.9999 16.874V6.75999C14.9999 6.54899 14.9259 6.34799 14.6859 6.22499C14.4459 6.10199 6.94789 2.15999 6.94789 2.15999C6.82689 2.11499 6.29889 1.78199 5.59489 2.14399C4.92589 2.48799 4.56189 2.86199 4.46889 3.03799L12.6489 7.51999C12.8659 7.63399 12.9999 7.80999 12.9999 8.03599V18.838C12.9974 18.9598 12.9617 19.0787 12.8967 19.1818C12.8317 19.2849 12.7398 19.3683 12.6309 19.423C12.5273 19.4741 12.4134 19.5004 12.2979 19.5C12.1621 19.5016 12.0285 19.4656 11.9119 19.396C11.6969 19.265 4.13789 14.63 3.63889 14.329C3.39889 14.185 3.11789 13.89 3.11189 13.671L2.99989 3.38499C2.99989 3.18699 2.97689 2.83799 3.28889 2.35299C3.98589 1.26899 6.41789 0.0359884 7.64889 0.674988L16.6479 5.22999C16.8649 5.34199 16.9999 5.56599 16.9999 5.94999V5.94999Z" fill="white"/>
</svg>
