<svg width="20" height="20" viewBox="0 0 20 20" fill="none" xmlns="http://www.w3.org/2000/svg">
<path d="M17 5.94999V16.301C17 16.823 16.548 17.072 16 17.461C15.56 17.774 15 17.386 15 16.874V6.75999C15 6.54899 14.926 6.34799 14.686 6.22499C14.446 6.10199 6.94801 2.15999 6.94801 2.15999C6.82701 2.11499 6.29901 1.78199 5.59501 2.14399C4.92601 2.48799 4.56201 2.86199 4.46901 3.03799L12.649 7.51999C12.866 7.63399 13 7.80999 13 8.03599V18.838C12.9975 18.9598 12.9619 19.0787 12.8968 19.1818C12.8318 19.2849 12.7399 19.3683 12.631 19.423C12.5275 19.4741 12.4135 19.5004 12.298 19.5C12.1622 19.5016 12.0286 19.4656 11.912 19.396C11.697 19.265 4.13801 14.63 3.63901 14.329C3.39901 14.185 3.11801 13.89 3.11201 13.671L3.00001 3.38499C3.00001 3.18699 2.97701 2.83799 3.28901 2.35299C3.98601 1.26899 6.41801 0.0359884 7.64901 0.674988L16.648 5.22999C16.865 5.34199 17 5.56599 17 5.94999Z" fill="white"/>
</svg>
