<svg width="22" height="22" viewBox="0 0 22 22" fill="none" xmlns="http://www.w3.org/2000/svg">
<path fill-rule="evenodd" clip-rule="evenodd" d="M10.9132 0C4.97028 0 0.152344 4.925 0.152344 11C0.152344 17.075 4.97028 22 10.9132 22C16.8561 22 21.6741 17.075 21.6741 11C21.6741 4.925 16.8561 0 10.9132 0ZM15.5776 9.14C15.6635 9.03964 15.7288 8.92274 15.7699 8.79617C15.8109 8.6696 15.8268 8.53591 15.8165 8.40298C15.8063 8.27006 15.7701 8.14056 15.7102 8.02213C15.6503 7.90369 15.5678 7.79871 15.4676 7.71334C15.3673 7.62798 15.2514 7.56396 15.1267 7.52506C15.0019 7.48616 14.8708 7.47316 14.741 7.48683C14.6113 7.50049 14.4855 7.54055 14.3711 7.60463C14.2567 7.66872 14.156 7.75554 14.075 7.86L9.86843 13.019L7.6918 10.793C7.5073 10.6108 7.26019 10.51 7.00369 10.5123C6.74719 10.5146 6.50183 10.6198 6.32046 10.8052C6.13908 10.9906 6.0362 11.2414 6.03397 11.5036C6.03174 11.7658 6.13034 12.0184 6.30854 12.207L9.24332 15.207C9.33944 15.3052 9.45452 15.3818 9.58123 15.4321C9.70793 15.4823 9.84348 15.505 9.97924 15.4986C10.115 15.4923 10.248 15.4572 10.3697 15.3954C10.4914 15.3337 10.5992 15.2467 10.6863 15.14L15.5776 9.14Z" fill="#048731"/>
</svg>
