<svg width="20" height="20" viewBox="0 0 20 20" fill="none" xmlns="http://www.w3.org/2000/svg">
<path d="M4.10836 4.10831C5.47568 2.73206 7.28032 1.87599 9.21117 1.68768C11.142 1.49937 13.0781 1.99063 14.6855 3.07675C16.293 4.16288 17.4712 5.77582 18.0169 7.63749C18.5626 9.49916 18.4417 11.4929 17.675 13.275C17.5951 13.4406 17.5689 13.6271 17.6 13.8083L18.3334 17.3333C18.3616 17.4685 18.3558 17.6085 18.3166 17.7409C18.2773 17.8732 18.2057 17.9938 18.1084 18.0916C18.0285 18.1709 17.9335 18.2332 17.8289 18.2747C17.7244 18.3162 17.6125 18.3362 17.5 18.3333H17.3334L13.7667 17.6166C13.5854 17.5949 13.4016 17.6207 13.2334 17.6916C11.4513 18.4583 9.45754 18.5792 7.59587 18.0335C5.7342 17.4878 4.12126 16.3096 3.03513 14.7022C1.94901 13.0947 1.45775 11.1586 1.64606 9.22779C1.83437 7.29695 2.69044 5.4923 4.06669 4.12498L4.10836 4.10831ZM13.3334 10.8333C13.4982 10.8333 13.6593 10.7844 13.7963 10.6929C13.9334 10.6013 14.0402 10.4712 14.1033 10.3189C14.1663 10.1666 14.1828 9.99905 14.1507 9.8374C14.1185 9.67575 14.0392 9.52727 13.9226 9.41072C13.8061 9.29418 13.6576 9.21481 13.4959 9.18266C13.3343 9.1505 13.1667 9.16701 13.0145 9.23008C12.8622 9.29315 12.732 9.39996 12.6405 9.537C12.5489 9.67404 12.5 9.83516 12.5 9.99998C12.5 10.221 12.5878 10.433 12.7441 10.5892C12.9004 10.7455 13.1123 10.8333 13.3334 10.8333ZM10 10.8333C10.1648 10.8333 10.326 10.7844 10.463 10.6929C10.6 10.6013 10.7069 10.4712 10.7699 10.3189C10.833 10.1666 10.8495 9.99905 10.8173 9.8374C10.7852 9.67575 10.7058 9.52727 10.5893 9.41072C10.4727 9.29418 10.3243 9.21481 10.1626 9.18266C10.0009 9.1505 9.83339 9.16701 9.68112 9.23008C9.52885 9.29315 9.3987 9.39996 9.30713 9.537C9.21556 9.67404 9.16669 9.83516 9.16669 9.99998C9.16669 10.221 9.25449 10.433 9.41077 10.5892C9.56705 10.7455 9.77901 10.8333 10 10.8333ZM6.66669 10.8333C6.83151 10.8333 6.99263 10.7844 7.12967 10.6929C7.26671 10.6013 7.37352 10.4712 7.43659 10.3189C7.49966 10.1666 7.51617 9.99905 7.48401 9.8374C7.45186 9.67575 7.37249 9.52727 7.25595 9.41072C7.1394 9.29418 6.99092 9.21481 6.82927 9.18266C6.66761 9.1505 6.50006 9.16701 6.34779 9.23008C6.19552 9.29315 6.06537 9.39996 5.9738 9.537C5.88223 9.67404 5.83336 9.83516 5.83336 9.99998C5.83336 10.221 5.92115 10.433 6.07743 10.5892C6.23371 10.7455 6.44568 10.8333 6.66669 10.8333Z" fill="white"/>
</svg>
