<svg width="20" height="20" viewBox="0 0 20 20" fill="none" xmlns="http://www.w3.org/2000/svg">
<path d="M4.10824 4.10831C5.47556 2.73206 7.2802 1.87599 9.21105 1.68768C11.1419 1.49937 13.0779 1.99063 14.6854 3.07675C16.2929 4.16288 17.471 5.77582 18.0168 7.63749C18.5625 9.49916 18.4416 11.4929 17.6749 13.275C17.595 13.4406 17.5688 13.6271 17.5999 13.8083L18.3332 17.3333C18.3615 17.4685 18.3557 17.6085 18.3164 17.7409C18.2772 17.8732 18.2056 17.9938 18.1082 18.0916C18.0284 18.1709 17.9333 18.2332 17.8288 18.2747C17.7242 18.3162 17.6124 18.3362 17.4999 18.3333H17.3332L13.7666 17.6166C13.5853 17.5949 13.4015 17.6207 13.2332 17.6916C11.4512 18.4583 9.45741 18.5792 7.59574 18.0335C5.73407 17.4878 4.12114 16.3096 3.03501 14.7022C1.94888 13.0947 1.45763 11.1586 1.64594 9.22779C1.83425 7.29695 2.69032 5.4923 4.06657 4.12498L4.10824 4.10831ZM13.3332 10.8333C13.4981 10.8333 13.6592 10.7844 13.7962 10.6929C13.9333 10.6013 14.0401 10.4712 14.1031 10.3189C14.1662 10.1666 14.1827 9.99905 14.1506 9.8374C14.1184 9.67575 14.039 9.52727 13.9225 9.41072C13.8059 9.29418 13.6575 9.21481 13.4958 9.18266C13.3342 9.1505 13.1666 9.16701 13.0143 9.23008C12.8621 9.29315 12.7319 9.39996 12.6403 9.537C12.5488 9.67404 12.4999 9.83516 12.4999 9.99998C12.4999 10.221 12.5877 10.433 12.744 10.5892C12.9003 10.7455 13.1122 10.8333 13.3332 10.8333ZM9.9999 10.8333C10.1647 10.8333 10.3258 10.7844 10.4629 10.6929C10.5999 10.6013 10.7067 10.4712 10.7698 10.3189C10.8329 10.1666 10.8494 9.99905 10.8172 9.8374C10.7851 9.67575 10.7057 9.52727 10.5892 9.41072C10.4726 9.29418 10.3241 9.21481 10.1625 9.18266C10.0008 9.1505 9.83327 9.16701 9.681 9.23008C9.52873 9.29315 9.39858 9.39996 9.30701 9.537C9.21544 9.67404 9.16657 9.83516 9.16657 9.99998C9.16657 10.221 9.25437 10.433 9.41065 10.5892C9.56693 10.7455 9.77889 10.8333 9.9999 10.8333ZM6.66657 10.8333C6.83139 10.8333 6.9925 10.7844 7.12954 10.6929C7.26658 10.6013 7.37339 10.4712 7.43647 10.3189C7.49954 10.1666 7.51604 9.99905 7.48389 9.8374C7.45174 9.67575 7.37237 9.52727 7.25582 9.41072C7.13928 9.29418 6.99079 9.21481 6.82914 9.18266C6.66749 9.1505 6.49994 9.16701 6.34767 9.23008C6.19539 9.29315 6.06524 9.39996 5.97368 9.537C5.88211 9.67404 5.83323 9.83516 5.83323 9.99998C5.83323 10.221 5.92103 10.433 6.07731 10.5892C6.23359 10.7455 6.44555 10.8333 6.66657 10.8333Z" fill="white"/>
</svg>
