<svg width="84" height="83" viewBox="0 0 84 83" fill="none" xmlns="http://www.w3.org/2000/svg">
<path d="M41.9997 27.7332V7.17172H21.4382C19.6204 7.17172 17.8771 7.89382 16.5918 9.17916C15.3064 10.4645 14.5844 12.2078 14.5844 14.0256V68.8562C14.5844 70.674 15.3064 72.4173 16.5918 73.7026C17.8771 74.988 19.6204 75.7101 21.4382 75.7101H62.5612C64.3789 75.7101 66.1222 74.988 67.4076 73.7026C68.6929 72.4173 69.415 70.674 69.415 68.8562V34.5871H48.8535C47.0358 34.5871 45.2925 33.865 44.0071 32.5796C42.7218 31.2943 41.9997 29.551 41.9997 27.7332ZM24.8651 42.2976C24.8651 41.616 25.1359 40.9622 25.6179 40.4802C26.0999 39.9982 26.7536 39.7274 27.4353 39.7274C28.1169 39.7274 28.7707 39.9982 29.2527 40.4802C29.7347 40.9622 30.0055 41.616 30.0055 42.2976C30.0055 42.9793 29.7347 43.633 29.2527 44.115C28.7707 44.597 28.1169 44.8678 27.4353 44.8678C26.7536 44.8678 26.0999 44.597 25.6179 44.115C25.1359 43.633 24.8651 42.9793 24.8651 42.2976ZM24.8651 52.5784C24.8651 51.8967 25.1359 51.243 25.6179 50.761C26.0999 50.279 26.7536 50.0082 27.4353 50.0082C28.1169 50.0082 28.7707 50.279 29.2527 50.761C29.7347 51.243 30.0055 51.8967 30.0055 52.5784C30.0055 53.26 29.7347 53.9138 29.2527 54.3958C28.7707 54.8778 28.1169 55.1486 27.4353 55.1486C26.7536 55.1486 26.0999 54.8778 25.6179 54.3958C25.1359 53.9138 24.8651 53.26 24.8651 52.5784ZM24.8651 62.8591C24.8651 62.1775 25.1359 61.5237 25.6179 61.0417C26.0999 60.5597 26.7536 60.2889 27.4353 60.2889C28.1169 60.2889 28.7707 60.5597 29.2527 61.0417C29.7347 61.5237 30.0055 62.1775 30.0055 62.8591C30.0055 63.5408 29.7347 64.1945 29.2527 64.6765C28.7707 65.1585 28.1169 65.4293 27.4353 65.4293C26.7536 65.4293 26.0999 65.1585 25.6179 64.6765C25.1359 64.1945 24.8651 63.5408 24.8651 62.8591ZM35.1459 42.2976C35.1459 41.616 35.4166 40.9622 35.8986 40.4802C36.3806 39.9982 37.0344 39.7274 37.716 39.7274H56.5641C57.2457 39.7274 57.8995 39.9982 58.3815 40.4802C58.8635 40.9622 59.1343 41.616 59.1343 42.2976C59.1343 42.9793 58.8635 43.633 58.3815 44.115C57.8995 44.597 57.2457 44.8678 56.5641 44.8678H37.716C37.0344 44.8678 36.3806 44.597 35.8986 44.115C35.4166 43.633 35.1459 42.9793 35.1459 42.2976ZM35.1459 52.5784C35.1459 51.8967 35.4166 51.243 35.8986 50.761C36.3806 50.279 37.0344 50.0082 37.716 50.0082H56.5641C57.2457 50.0082 57.8995 50.279 58.3815 50.761C58.8635 51.243 59.1343 51.8967 59.1343 52.5784C59.1343 53.26 58.8635 53.9138 58.3815 54.3958C57.8995 54.8778 57.2457 55.1486 56.5641 55.1486H37.716C37.0344 55.1486 36.3806 54.8778 35.8986 54.3958C35.4166 53.9138 35.1459 53.26 35.1459 52.5784ZM35.1459 62.8591C35.1459 62.1775 35.4166 61.5237 35.8986 61.0417C36.3806 60.5597 37.0344 60.2889 37.716 60.2889H56.5641C57.2457 60.2889 57.8995 60.5597 58.3815 61.0417C58.8635 61.5237 59.1343 62.1775 59.1343 62.8591C59.1343 63.5408 58.8635 64.1945 58.3815 64.6765C57.8995 65.1585 57.2457 65.4293 56.5641 65.4293H37.716C37.0344 65.4293 36.3806 65.1585 35.8986 64.6765C35.4166 64.1945 35.1459 63.5408 35.1459 62.8591ZM47.1401 27.7332V8.88518L67.7016 29.4467H48.8535C48.3991 29.4467 47.9633 29.2662 47.6419 28.9448C47.3206 28.6235 47.1401 28.1877 47.1401 27.7332Z" fill="white"/>
</svg>
