<svg width="83" height="83" viewBox="0 0 83 83" fill="none" xmlns="http://www.w3.org/2000/svg">
<path d="M41.8576 27.7332V7.17172H21.2961C19.4783 7.17172 17.735 7.89382 16.4497 9.17916C15.1644 10.4645 14.4423 12.2078 14.4423 14.0256V68.8562C14.4423 70.674 15.1644 72.4173 16.4497 73.7026C17.735 74.988 19.4783 75.7101 21.2961 75.7101H62.4191C64.2368 75.7101 65.9801 74.988 67.2655 73.7026C68.5508 72.4173 69.2729 70.674 69.2729 68.8562V34.5871H48.7114C46.8937 34.5871 45.1504 33.865 43.865 32.5796C42.5797 31.2943 41.8576 29.551 41.8576 27.7332ZM24.723 42.2976C24.723 41.616 24.9938 40.9622 25.4758 40.4802C25.9578 39.9982 26.6115 39.7274 27.2932 39.7274C27.9749 39.7274 28.6286 39.9982 29.1106 40.4802C29.5926 40.9622 29.8634 41.616 29.8634 42.2976C29.8634 42.9793 29.5926 43.633 29.1106 44.115C28.6286 44.597 27.9749 44.8678 27.2932 44.8678C26.6115 44.8678 25.9578 44.597 25.4758 44.115C24.9938 43.633 24.723 42.9793 24.723 42.2976ZM24.723 52.5784C24.723 51.8967 24.9938 51.243 25.4758 50.761C25.9578 50.279 26.6115 50.0082 27.2932 50.0082C27.9749 50.0082 28.6286 50.279 29.1106 50.761C29.5926 51.243 29.8634 51.8967 29.8634 52.5784C29.8634 53.26 29.5926 53.9138 29.1106 54.3958C28.6286 54.8778 27.9749 55.1486 27.2932 55.1486C26.6115 55.1486 25.9578 54.8778 25.4758 54.3958C24.9938 53.9138 24.723 53.26 24.723 52.5784ZM24.723 62.8591C24.723 62.1775 24.9938 61.5237 25.4758 61.0417C25.9578 60.5597 26.6115 60.2889 27.2932 60.2889C27.9749 60.2889 28.6286 60.5597 29.1106 61.0417C29.5926 61.5237 29.8634 62.1775 29.8634 62.8591C29.8634 63.5408 29.5926 64.1945 29.1106 64.6765C28.6286 65.1585 27.9749 65.4293 27.2932 65.4293C26.6115 65.4293 25.9578 65.1585 25.4758 64.6765C24.9938 64.1945 24.723 63.5408 24.723 62.8591ZM35.0038 42.2976C35.0038 41.616 35.2745 40.9622 35.7566 40.4802C36.2386 39.9982 36.8923 39.7274 37.5739 39.7274H56.422C57.1036 39.7274 57.7574 39.9982 58.2394 40.4802C58.7214 40.9622 58.9922 41.616 58.9922 42.2976C58.9922 42.9793 58.7214 43.633 58.2394 44.115C57.7574 44.597 57.1036 44.8678 56.422 44.8678H37.5739C36.8923 44.8678 36.2386 44.597 35.7566 44.115C35.2745 43.633 35.0038 42.9793 35.0038 42.2976ZM35.0038 52.5784C35.0038 51.8967 35.2745 51.243 35.7566 50.761C36.2386 50.279 36.8923 50.0082 37.5739 50.0082H56.422C57.1036 50.0082 57.7574 50.279 58.2394 50.761C58.7214 51.243 58.9922 51.8967 58.9922 52.5784C58.9922 53.26 58.7214 53.9138 58.2394 54.3958C57.7574 54.8778 57.1036 55.1486 56.422 55.1486H37.5739C36.8923 55.1486 36.2386 54.8778 35.7566 54.3958C35.2745 53.9138 35.0038 53.26 35.0038 52.5784ZM35.0038 62.8591C35.0038 62.1775 35.2745 61.5237 35.7566 61.0417C36.2386 60.5597 36.8923 60.2889 37.5739 60.2889H56.422C57.1036 60.2889 57.7574 60.5597 58.2394 61.0417C58.7214 61.5237 58.9922 62.1775 58.9922 62.8591C58.9922 63.5408 58.7214 64.1945 58.2394 64.6765C57.7574 65.1585 57.1036 65.4293 56.422 65.4293H37.5739C36.8923 65.4293 36.2386 65.1585 35.7566 64.6765C35.2745 64.1945 35.0038 63.5408 35.0038 62.8591ZM46.998 27.7332V8.88518L67.5595 29.4467H48.7114C48.257 29.4467 47.8212 29.2662 47.4998 28.9448C47.1785 28.6235 46.998 28.1877 46.998 27.7332Z" fill="white"/>
</svg>
