<svg width="83" height="83" viewBox="0 0 83 83" fill="none" xmlns="http://www.w3.org/2000/svg">
<path d="M41.8587 27.7332V7.17172H21.2972C19.4794 7.17172 17.7361 7.89382 16.4508 9.17916C15.1655 10.4645 14.4434 12.2078 14.4434 14.0256V68.8562C14.4434 70.674 15.1655 72.4173 16.4508 73.7026C17.7361 74.988 19.4794 75.7101 21.2972 75.7101H62.4202C64.2379 75.7101 65.9812 74.988 67.2666 73.7026C68.5519 72.4173 69.274 70.674 69.274 68.8562V34.5871H48.7125C46.8948 34.5871 45.1515 33.865 43.8661 32.5796C42.5808 31.2943 41.8587 29.551 41.8587 27.7332ZM24.7241 42.2976C24.7241 41.616 24.9949 40.9622 25.4769 40.4802C25.9589 39.9982 26.6126 39.7274 27.2943 39.7274C27.976 39.7274 28.6297 39.9982 29.1117 40.4802C29.5937 40.9622 29.8645 41.616 29.8645 42.2976C29.8645 42.9793 29.5937 43.633 29.1117 44.115C28.6297 44.597 27.976 44.8678 27.2943 44.8678C26.6126 44.8678 25.9589 44.597 25.4769 44.115C24.9949 43.633 24.7241 42.9793 24.7241 42.2976ZM24.7241 52.5784C24.7241 51.8967 24.9949 51.243 25.4769 50.761C25.9589 50.279 26.6126 50.0082 27.2943 50.0082C27.976 50.0082 28.6297 50.279 29.1117 50.761C29.5937 51.243 29.8645 51.8967 29.8645 52.5784C29.8645 53.26 29.5937 53.9138 29.1117 54.3958C28.6297 54.8778 27.976 55.1486 27.2943 55.1486C26.6126 55.1486 25.9589 54.8778 25.4769 54.3958C24.9949 53.9138 24.7241 53.26 24.7241 52.5784ZM24.7241 62.8591C24.7241 62.1775 24.9949 61.5237 25.4769 61.0417C25.9589 60.5597 26.6126 60.2889 27.2943 60.2889C27.976 60.2889 28.6297 60.5597 29.1117 61.0417C29.5937 61.5237 29.8645 62.1775 29.8645 62.8591C29.8645 63.5408 29.5937 64.1945 29.1117 64.6765C28.6297 65.1585 27.976 65.4293 27.2943 65.4293C26.6126 65.4293 25.9589 65.1585 25.4769 64.6765C24.9949 64.1945 24.7241 63.5408 24.7241 62.8591ZM35.0049 42.2976C35.0049 41.616 35.2756 40.9622 35.7577 40.4802C36.2397 39.9982 36.8934 39.7274 37.575 39.7274H56.4231C57.1047 39.7274 57.7585 39.9982 58.2405 40.4802C58.7225 40.9622 58.9933 41.616 58.9933 42.2976C58.9933 42.9793 58.7225 43.633 58.2405 44.115C57.7585 44.597 57.1047 44.8678 56.4231 44.8678H37.575C36.8934 44.8678 36.2397 44.597 35.7577 44.115C35.2756 43.633 35.0049 42.9793 35.0049 42.2976ZM35.0049 52.5784C35.0049 51.8967 35.2756 51.243 35.7577 50.761C36.2397 50.279 36.8934 50.0082 37.575 50.0082H56.4231C57.1047 50.0082 57.7585 50.279 58.2405 50.761C58.7225 51.243 58.9933 51.8967 58.9933 52.5784C58.9933 53.26 58.7225 53.9138 58.2405 54.3958C57.7585 54.8778 57.1047 55.1486 56.4231 55.1486H37.575C36.8934 55.1486 36.2397 54.8778 35.7577 54.3958C35.2756 53.9138 35.0049 53.26 35.0049 52.5784ZM35.0049 62.8591C35.0049 62.1775 35.2756 61.5237 35.7577 61.0417C36.2397 60.5597 36.8934 60.2889 37.575 60.2889H56.4231C57.1047 60.2889 57.7585 60.5597 58.2405 61.0417C58.7225 61.5237 58.9933 62.1775 58.9933 62.8591C58.9933 63.5408 58.7225 64.1945 58.2405 64.6765C57.7585 65.1585 57.1047 65.4293 56.4231 65.4293H37.575C36.8934 65.4293 36.2397 65.1585 35.7577 64.6765C35.2756 64.1945 35.0049 63.5408 35.0049 62.8591ZM46.9991 27.7332V8.88518L67.5606 29.4467H48.7125C48.2581 29.4467 47.8223 29.2662 47.5009 28.9448C47.1796 28.6235 46.9991 28.1877 46.9991 27.7332Z" fill="white"/>
</svg>
