<svg width="84" height="83" viewBox="0 0 84 83" fill="none" xmlns="http://www.w3.org/2000/svg">
<path d="M41.9993 27.7332V7.17172H21.4378C19.6201 7.17172 17.8768 7.89382 16.5914 9.17916C15.3061 10.4645 14.584 12.2078 14.584 14.0256V68.8562C14.584 70.674 15.3061 72.4173 16.5914 73.7026C17.8768 74.988 19.6201 75.7101 21.4378 75.7101H62.5608C64.3786 75.7101 66.1219 74.988 67.4072 73.7026C68.6926 72.4173 69.4147 70.674 69.4147 68.8562V34.5871H48.8532C47.0354 34.5871 45.2921 33.865 44.0068 32.5796C42.7214 31.2943 41.9993 29.551 41.9993 27.7332ZM24.8647 42.2976C24.8647 41.616 25.1355 40.9622 25.6175 40.4802C26.0995 39.9982 26.7533 39.7274 27.4349 39.7274C28.1166 39.7274 28.7703 39.9982 29.2523 40.4802C29.7343 40.9622 30.0051 41.616 30.0051 42.2976C30.0051 42.9793 29.7343 43.633 29.2523 44.115C28.7703 44.597 28.1166 44.8678 27.4349 44.8678C26.7533 44.8678 26.0995 44.597 25.6175 44.115C25.1355 43.633 24.8647 42.9793 24.8647 42.2976ZM24.8647 52.5784C24.8647 51.8967 25.1355 51.243 25.6175 50.761C26.0995 50.279 26.7533 50.0082 27.4349 50.0082C28.1166 50.0082 28.7703 50.279 29.2523 50.761C29.7343 51.243 30.0051 51.8967 30.0051 52.5784C30.0051 53.26 29.7343 53.9138 29.2523 54.3958C28.7703 54.8778 28.1166 55.1486 27.4349 55.1486C26.7533 55.1486 26.0995 54.8778 25.6175 54.3958C25.1355 53.9138 24.8647 53.26 24.8647 52.5784ZM24.8647 62.8591C24.8647 62.1775 25.1355 61.5237 25.6175 61.0417C26.0995 60.5597 26.7533 60.2889 27.4349 60.2889C28.1166 60.2889 28.7703 60.5597 29.2523 61.0417C29.7343 61.5237 30.0051 62.1775 30.0051 62.8591C30.0051 63.5408 29.7343 64.1945 29.2523 64.6765C28.7703 65.1585 28.1166 65.4293 27.4349 65.4293C26.7533 65.4293 26.0995 65.1585 25.6175 64.6765C25.1355 64.1945 24.8647 63.5408 24.8647 62.8591ZM35.1455 42.2976C35.1455 41.616 35.4163 40.9622 35.8983 40.4802C36.3803 39.9982 37.034 39.7274 37.7157 39.7274H56.5637C57.2454 39.7274 57.8991 39.9982 58.3811 40.4802C58.8631 40.9622 59.1339 41.616 59.1339 42.2976C59.1339 42.9793 58.8631 43.633 58.3811 44.115C57.8991 44.597 57.2454 44.8678 56.5637 44.8678H37.7157C37.034 44.8678 36.3803 44.597 35.8983 44.115C35.4163 43.633 35.1455 42.9793 35.1455 42.2976ZM35.1455 52.5784C35.1455 51.8967 35.4163 51.243 35.8983 50.761C36.3803 50.279 37.034 50.0082 37.7157 50.0082H56.5637C57.2454 50.0082 57.8991 50.279 58.3811 50.761C58.8631 51.243 59.1339 51.8967 59.1339 52.5784C59.1339 53.26 58.8631 53.9138 58.3811 54.3958C57.8991 54.8778 57.2454 55.1486 56.5637 55.1486H37.7157C37.034 55.1486 36.3803 54.8778 35.8983 54.3958C35.4163 53.9138 35.1455 53.26 35.1455 52.5784ZM35.1455 62.8591C35.1455 62.1775 35.4163 61.5237 35.8983 61.0417C36.3803 60.5597 37.034 60.2889 37.7157 60.2889H56.5637C57.2454 60.2889 57.8991 60.5597 58.3811 61.0417C58.8631 61.5237 59.1339 62.1775 59.1339 62.8591C59.1339 63.5408 58.8631 64.1945 58.3811 64.6765C57.8991 65.1585 57.2454 65.4293 56.5637 65.4293H37.7157C37.034 65.4293 36.3803 65.1585 35.8983 64.6765C35.4163 64.1945 35.1455 63.5408 35.1455 62.8591ZM47.1397 27.7332V8.88518L67.7012 29.4467H48.8532C48.3987 29.4467 47.9629 29.2662 47.6416 28.9448C47.3202 28.6235 47.1397 28.1877 47.1397 27.7332Z" fill="white"/>
</svg>
