<svg width="83" height="83" viewBox="0 0 83 83" fill="none" xmlns="http://www.w3.org/2000/svg">
<path d="M41.8577 27.7332V7.17172H21.2962C19.4785 7.17172 17.7352 7.89382 16.4498 9.17916C15.1645 10.4645 14.4424 12.2078 14.4424 14.0256V68.8562C14.4424 70.674 15.1645 72.4173 16.4498 73.7026C17.7352 74.988 19.4785 75.7101 21.2962 75.7101H62.4192C64.237 75.7101 65.9803 74.988 67.2656 73.7026C68.551 72.4173 69.2731 70.674 69.2731 68.8562V34.5871H48.7116C46.8938 34.5871 45.1505 33.865 43.8652 32.5796C42.5798 31.2943 41.8577 29.551 41.8577 27.7332ZM24.7231 42.2976C24.7231 41.616 24.9939 40.9622 25.4759 40.4802C25.9579 39.9982 26.6117 39.7274 27.2933 39.7274C27.975 39.7274 28.6287 39.9982 29.1107 40.4802C29.5927 40.9622 29.8635 41.616 29.8635 42.2976C29.8635 42.9793 29.5927 43.633 29.1107 44.115C28.6287 44.597 27.975 44.8678 27.2933 44.8678C26.6117 44.8678 25.9579 44.597 25.4759 44.115C24.9939 43.633 24.7231 42.9793 24.7231 42.2976ZM24.7231 52.5784C24.7231 51.8967 24.9939 51.243 25.4759 50.761C25.9579 50.279 26.6117 50.0082 27.2933 50.0082C27.975 50.0082 28.6287 50.279 29.1107 50.761C29.5927 51.243 29.8635 51.8967 29.8635 52.5784C29.8635 53.26 29.5927 53.9138 29.1107 54.3958C28.6287 54.8778 27.975 55.1486 27.2933 55.1486C26.6117 55.1486 25.9579 54.8778 25.4759 54.3958C24.9939 53.9138 24.7231 53.26 24.7231 52.5784ZM24.7231 62.8591C24.7231 62.1775 24.9939 61.5237 25.4759 61.0417C25.9579 60.5597 26.6117 60.2889 27.2933 60.2889C27.975 60.2889 28.6287 60.5597 29.1107 61.0417C29.5927 61.5237 29.8635 62.1775 29.8635 62.8591C29.8635 63.5408 29.5927 64.1945 29.1107 64.6765C28.6287 65.1585 27.975 65.4293 27.2933 65.4293C26.6117 65.4293 25.9579 65.1585 25.4759 64.6765C24.9939 64.1945 24.7231 63.5408 24.7231 62.8591ZM35.0039 42.2976C35.0039 41.616 35.2747 40.9622 35.7567 40.4802C36.2387 39.9982 36.8924 39.7274 37.5741 39.7274H56.4221C57.1038 39.7274 57.7575 39.9982 58.2395 40.4802C58.7215 40.9622 58.9923 41.616 58.9923 42.2976C58.9923 42.9793 58.7215 43.633 58.2395 44.115C57.7575 44.597 57.1038 44.8678 56.4221 44.8678H37.5741C36.8924 44.8678 36.2387 44.597 35.7567 44.115C35.2747 43.633 35.0039 42.9793 35.0039 42.2976ZM35.0039 52.5784C35.0039 51.8967 35.2747 51.243 35.7567 50.761C36.2387 50.279 36.8924 50.0082 37.5741 50.0082H56.4221C57.1038 50.0082 57.7575 50.279 58.2395 50.761C58.7215 51.243 58.9923 51.8967 58.9923 52.5784C58.9923 53.26 58.7215 53.9138 58.2395 54.3958C57.7575 54.8778 57.1038 55.1486 56.4221 55.1486H37.5741C36.8924 55.1486 36.2387 54.8778 35.7567 54.3958C35.2747 53.9138 35.0039 53.26 35.0039 52.5784ZM35.0039 62.8591C35.0039 62.1775 35.2747 61.5237 35.7567 61.0417C36.2387 60.5597 36.8924 60.2889 37.5741 60.2889H56.4221C57.1038 60.2889 57.7575 60.5597 58.2395 61.0417C58.7215 61.5237 58.9923 62.1775 58.9923 62.8591C58.9923 63.5408 58.7215 64.1945 58.2395 64.6765C57.7575 65.1585 57.1038 65.4293 56.4221 65.4293H37.5741C36.8924 65.4293 36.2387 65.1585 35.7567 64.6765C35.2747 64.1945 35.0039 63.5408 35.0039 62.8591ZM46.9981 27.7332V8.88518L67.5596 29.4467H48.7116C48.2571 29.4467 47.8213 29.2662 47.5 28.9448C47.1786 28.6235 46.9981 28.1877 46.9981 27.7332Z" fill="white"/>
</svg>
