<svg width="16" height="15" viewBox="0 0 16 15" fill="none" xmlns="http://www.w3.org/2000/svg">
<path d="M15.3254 13.9218L10.5619 9.05246C11.3011 8.07559 11.7009 6.88122 11.7009 5.62498C11.7009 4.12123 11.1268 2.71124 10.0887 1.64812C9.05048 0.584997 7.66747 0 6.19825 0C4.72903 0 3.34602 0.586872 2.30785 1.64812C1.26784 2.70936 0.695557 4.12123 0.695557 5.62498C0.695557 7.12684 1.26967 8.54059 2.30785 9.60183C3.34602 10.665 4.7272 11.25 6.19825 11.25C7.42718 11.25 8.59376 10.8412 9.54939 10.0875L14.3129 14.9549C14.3269 14.9692 14.3434 14.9806 14.3617 14.9883C14.3799 14.996 14.3995 15 14.4193 15C14.439 15 14.4586 14.996 14.4769 14.9883C14.4951 14.9806 14.5117 14.9692 14.5257 14.9549L15.3254 14.1393C15.3394 14.125 15.3504 14.1081 15.358 14.0894C15.3656 14.0708 15.3695 14.0508 15.3695 14.0306C15.3695 14.0104 15.3656 13.9904 15.358 13.9717C15.3504 13.953 15.3394 13.9361 15.3254 13.9218ZM9.10367 8.59496C8.32596 9.38808 7.29512 9.82496 6.19825 9.82496C5.10138 9.82496 4.07054 9.38808 3.29283 8.59496C2.51695 7.79997 2.08957 6.74622 2.08957 5.62498C2.08957 4.50373 2.51695 3.44811 3.29283 2.65499C4.07054 1.86187 5.10138 1.42499 6.19825 1.42499C7.29512 1.42499 8.32779 1.85999 9.10367 2.65499C9.87955 3.44999 10.3069 4.50373 10.3069 5.62498C10.3069 6.74622 9.87955 7.80184 9.10367 8.59496Z" fill="#8A8A8A"/>
</svg>
