<svg width="16" height="15" viewBox="0 0 16 15" fill="none" xmlns="http://www.w3.org/2000/svg">
<path d="M15.3251 13.9218L10.5616 9.05246C11.3008 8.07559 11.7007 6.88122 11.7007 5.62498C11.7007 4.12123 11.1266 2.71124 10.0884 1.64812C9.05023 0.584997 7.66722 0 6.19801 0C4.72879 0 3.34578 0.586872 2.3076 1.64812C1.26759 2.70936 0.695312 4.12123 0.695312 5.62498C0.695312 7.12684 1.26943 8.54059 2.3076 9.60183C3.34578 10.665 4.72695 11.25 6.19801 11.25C7.42694 11.25 8.59351 10.8412 9.54915 10.0875L14.3126 14.9549C14.3266 14.9692 14.3432 14.9806 14.3615 14.9883C14.3797 14.996 14.3993 15 14.419 15C14.4388 15 14.4584 14.996 14.4766 14.9883C14.4949 14.9806 14.5114 14.9692 14.5254 14.9549L15.3251 14.1393C15.3391 14.125 15.3502 14.1081 15.3578 14.0894C15.3653 14.0708 15.3692 14.0508 15.3692 14.0306C15.3692 14.0104 15.3653 13.9904 15.3578 13.9717C15.3502 13.953 15.3391 13.9361 15.3251 13.9218ZM9.10343 8.59496C8.32571 9.38808 7.29488 9.82496 6.19801 9.82496C5.10114 9.82496 4.0703 9.38808 3.29258 8.59496C2.5167 7.79997 2.08933 6.74622 2.08933 5.62498C2.08933 4.50373 2.5167 3.44811 3.29258 2.65499C4.0703 1.86187 5.10114 1.42499 6.19801 1.42499C7.29488 1.42499 8.32755 1.85999 9.10343 2.65499C9.87931 3.44999 10.3067 4.50373 10.3067 5.62498C10.3067 6.74622 9.87931 7.80184 9.10343 8.59496Z" fill="#8A8A8A"/>
</svg>
