<svg width="20" height="20" viewBox="0 0 20 20" fill="none" xmlns="http://www.w3.org/2000/svg">
<g clip-path="url(#clip0_1_475)">
<path d="M18.3332 10.5555C18.2601 10.556 18.1876 10.542 18.1199 10.5143C18.0522 10.4867 17.9907 10.4459 17.9387 10.3944L9.99985 2.44998L2.06096 10.3944C1.95468 10.4854 1.81798 10.533 1.67816 10.5276C1.53834 10.5222 1.4057 10.4642 1.30676 10.3653C1.20782 10.2664 1.14986 10.1337 1.14446 9.9939C1.13906 9.85408 1.18662 9.71737 1.27763 9.6111L9.61096 1.27776C9.71505 1.17429 9.85586 1.11621 10.0026 1.11621C10.1494 1.11621 10.2902 1.17429 10.3943 1.27776L18.7276 9.6111C18.8041 9.68909 18.8558 9.78788 18.8765 9.89513C18.8971 10.0024 18.8856 10.1133 18.8435 10.2141C18.8014 10.3149 18.7306 10.401 18.6398 10.4617C18.549 10.5225 18.4424 10.5551 18.3332 10.5555Z" fill="white"/>
<path d="M10.0002 4.32776L3.3335 11.0166V17.7778C3.3335 18.0724 3.45056 18.3551 3.65893 18.5634C3.86731 18.7718 4.14992 18.8889 4.44461 18.8889H8.3335V13.3333H11.6668V18.8889H15.5557C15.8504 18.8889 16.133 18.7718 16.3414 18.5634C16.5498 18.3551 16.6668 18.0724 16.6668 17.7778V10.9778L10.0002 4.32776Z" fill="white"/>
</g>
<defs>
<clipPath id="clip0_1_475">
<rect width="20" height="20" fill="white"/>
</clipPath>
</defs>
</svg>
