<svg width="20" height="20" viewBox="0 0 20 20" fill="none" xmlns="http://www.w3.org/2000/svg">
<g clip-path="url(#clip0_1_1749)">
<path d="M18.3333 10.5555C18.2602 10.556 18.1877 10.542 18.1201 10.5143C18.0524 10.4867 17.9908 10.4459 17.9389 10.3944L10 2.44998L2.06112 10.3944C1.95484 10.4854 1.81813 10.533 1.67831 10.5276C1.53849 10.5222 1.40586 10.4642 1.30691 10.3653C1.20797 10.2664 1.15001 10.1337 1.14461 9.9939C1.13921 9.85408 1.18677 9.71737 1.27778 9.6111L9.61112 1.27776C9.71521 1.17429 9.85601 1.11621 10.0028 1.11621C10.1496 1.11621 10.2904 1.17429 10.3944 1.27776L18.7278 9.6111C18.8042 9.68909 18.856 9.78788 18.8766 9.89513C18.8972 10.0024 18.8858 10.1133 18.8437 10.2141C18.8016 10.3149 18.7307 10.401 18.64 10.4617C18.5492 10.5225 18.4425 10.5551 18.3333 10.5555Z" fill="white"/>
<path d="M10 4.32776L3.33334 11.0166V17.7778C3.33334 18.0724 3.45041 18.3551 3.65878 18.5634C3.86715 18.7718 4.14977 18.8889 4.44445 18.8889H8.33334V13.3333H11.6667V18.8889H15.5556C15.8503 18.8889 16.1329 18.7718 16.3412 18.5634C16.5496 18.3551 16.6667 18.0724 16.6667 17.7778V10.9778L10 4.32776Z" fill="white"/>
</g>
<defs>
<clipPath id="clip0_1_1749">
<rect width="20" height="20" fill="white"/>
</clipPath>
</defs>
</svg>
