<svg width="184" height="26" viewBox="0 0 184 26" fill="none" xmlns="http://www.w3.org/2000/svg">
<g clip-path="url(#clip0_1_1064)">
<path d="M103.5 7.30072C103.364 6.81595 103.1 6.37706 102.734 6.03072C102.358 5.67372 101.898 5.41835 101.396 5.28872C99.5181 4.79372 91.9941 4.79372 91.9941 4.79372C88.8575 4.75803 85.7216 4.91499 82.6041 5.26372C82.1023 5.40293 81.6427 5.664 81.2661 6.02372C80.8961 6.37972 80.6281 6.81872 80.4881 7.29972C80.1518 9.11146 79.9884 10.9511 80.0001 12.7937C79.9881 14.6347 80.1511 16.4737 80.4881 18.2877C80.6251 18.7667 80.8921 19.2037 81.2631 19.5567C81.6341 19.9097 82.0961 20.1647 82.6041 20.2997C84.5071 20.7937 91.9941 20.7937 91.9941 20.7937C95.1348 20.8295 98.2747 20.6725 101.396 20.3237C101.898 20.1941 102.358 19.9387 102.734 19.5817C103.099 19.2354 103.364 18.7965 103.499 18.3117C103.844 16.5007 104.012 14.6603 104 12.8167C104.026 10.9653 103.859 9.11628 103.5 7.29972V7.30072ZM89.6021 16.2177V9.37072L95.8621 12.7947L89.6021 16.2177Z" fill="#0FA958"/>
</g>
<g clip-path="url(#clip1_1_1064)">
<path d="M179.321 6.3557C179.169 6.27715 179.021 6.19104 178.878 6.0977C178.461 5.82242 178.08 5.4981 177.741 5.1317C176.892 4.1607 176.575 3.1757 176.459 2.4867H176.463C176.366 1.9137 176.406 1.5437 176.413 1.5437H172.548V16.4867C172.548 16.6867 172.548 16.8857 172.54 17.0817C172.54 17.1057 172.537 17.1277 172.536 17.1547C172.536 17.1647 172.536 17.1767 172.533 17.1877V17.1967C172.492 17.7327 172.321 18.2506 172.033 18.7046C171.745 19.1587 171.35 19.5351 170.883 19.8007C170.395 20.0781 169.844 20.2235 169.283 20.2227C167.483 20.2227 166.023 18.7547 166.023 16.9417C166.023 15.1277 167.483 13.6597 169.283 13.6597C169.624 13.6597 169.963 13.7137 170.287 13.8197L170.292 9.8837C169.308 9.75675 168.308 9.83517 167.356 10.114C166.404 10.3928 165.52 10.866 164.76 11.5037C164.094 12.0822 163.534 12.7726 163.105 13.5437C162.942 13.8247 162.326 14.9557 162.252 16.7897C162.205 17.8297 162.518 18.9097 162.667 19.3547V19.3647C162.76 19.6267 163.124 20.5227 163.716 21.2777C164.193 21.8837 164.757 22.4161 165.39 22.8577V22.8477L165.399 22.8577C167.269 24.1277 169.344 24.0447 169.344 24.0447C169.703 24.0297 170.906 24.0447 172.272 23.3977C173.787 22.6797 174.649 21.6107 174.649 21.6107C175.2 20.9718 175.638 20.2437 175.945 19.4577C176.295 18.5377 176.411 17.4357 176.411 16.9957V9.0667C176.458 9.0947 177.083 9.5077 177.083 9.5077C177.083 9.5077 177.983 10.0847 179.386 10.4597C180.392 10.7267 181.749 10.7837 181.749 10.7837V6.9467C181.274 6.9987 180.309 6.8487 179.32 6.3567L179.321 6.3557Z" fill="#0FA958"/>
</g>
<g clip-path="url(#clip2_1_1064)">
<path d="M120 12.7937C120 17.9167 123.211 22.2907 127.73 24.0117C127.62 23.0747 127.503 21.5297 127.755 20.4457C127.972 19.5137 129.156 14.5077 129.156 14.5077C129.156 14.5077 128.799 13.7927 128.799 12.7337C128.799 11.0737 129.761 9.8337 130.96 9.8337C131.98 9.8337 132.472 10.5987 132.472 11.5157C132.472 12.5407 131.819 14.0727 131.482 15.4937C131.201 16.6827 132.079 17.6527 133.251 17.6527C135.374 17.6527 137.007 15.4137 137.007 12.1817C137.007 9.3207 134.951 7.3217 132.016 7.3217C128.618 7.3217 126.623 9.8707 126.623 12.5057C126.623 13.5327 127.018 14.6327 127.512 15.2317C127.554 15.2769 127.584 15.3323 127.598 15.3923C127.613 15.4524 127.612 15.5152 127.595 15.5747C127.504 15.9527 127.302 16.7637 127.263 16.9297C127.21 17.1477 127.09 17.1947 126.863 17.0887C125.371 16.3947 124.439 14.2137 124.439 12.4617C124.439 8.6927 127.176 5.2327 132.331 5.2327C136.475 5.2327 139.696 8.1857 139.696 12.1317C139.696 16.2487 137.101 19.5627 133.497 19.5627C132.286 19.5627 131.149 18.9327 130.759 18.1897C130.759 18.1897 130.16 20.4717 130.015 21.0297C129.733 22.1137 128.951 23.4857 128.466 24.2647C129.584 24.6087 130.77 24.7937 132 24.7937C138.627 24.7937 144 19.4207 144 12.7937C144 6.1667 138.627 0.793701 132 0.793701C125.373 0.793701 120 6.1667 120 12.7937Z" fill="#0FA958"/>
</g>
<g clip-path="url(#clip3_1_1064)">
<path fill-rule="evenodd" clip-rule="evenodd" d="M0 13.8607C0 19.8267 4.333 24.7877 10 25.7937V17.1267H7V13.7937H10V11.1267C10 8.1267 11.933 6.4607 14.667 6.4607C15.533 6.4607 16.467 6.5937 17.333 6.7267V9.7937H15.8C14.333 9.7937 14 10.5267 14 11.4607V13.7937H17.2L16.667 17.1267H14V25.7937C19.667 24.7877 24 19.8277 24 13.8607C24 7.2237 18.6 1.7937 12 1.7937C5.4 1.7937 0 7.2237 0 13.8607Z" fill="#0FA958"/>
</g>
<path fill-rule="evenodd" clip-rule="evenodd" d="M47.465 1.8597C48.638 1.8057 49.012 1.7937 52 1.7937C54.988 1.7937 55.362 1.8067 56.534 1.8597C57.706 1.9127 58.506 2.0997 59.206 2.3707C59.939 2.6477 60.604 3.0807 61.154 3.6407C61.714 4.1897 62.146 4.8537 62.422 5.5877C62.694 6.2877 62.88 7.0877 62.934 8.2577C62.988 9.4327 63 9.8067 63 12.7937C63 15.7817 62.987 16.1557 62.934 17.3287C62.881 18.4987 62.694 19.2987 62.422 19.9987C62.146 20.7328 61.7133 21.3979 61.154 21.9477C60.604 22.5077 59.939 22.9397 59.206 23.2157C58.506 23.4877 57.706 23.6737 56.536 23.7277C55.362 23.7817 54.988 23.7937 52 23.7937C49.012 23.7937 48.638 23.7807 47.465 23.7277C46.295 23.6747 45.495 23.4877 44.795 23.2157C44.0609 22.9397 43.3958 22.507 42.846 21.9477C42.2864 21.3984 41.8533 20.7336 41.577 19.9997C41.306 19.2997 41.12 18.4997 41.066 17.3297C41.012 16.1547 41 15.7807 41 12.7937C41 9.8057 41.013 9.4317 41.066 8.2597C41.119 7.0877 41.306 6.2877 41.577 5.5877C41.8537 4.85378 42.2871 4.18901 42.847 3.6397C43.396 3.0802 44.0605 2.64714 44.794 2.3707C45.494 2.0997 46.294 1.9137 47.464 1.8597H47.465ZM56.445 3.8397C55.285 3.7867 54.937 3.7757 52 3.7757C49.063 3.7757 48.715 3.7867 47.555 3.8397C46.482 3.8887 45.9 4.0677 45.512 4.2187C44.999 4.4187 44.632 4.6557 44.247 5.0407C43.882 5.39575 43.6012 5.82798 43.425 6.3057C43.274 6.6937 43.095 7.2757 43.046 8.3487C42.993 9.5087 42.982 9.8567 42.982 12.7937C42.982 15.7307 42.993 16.0787 43.046 17.2387C43.095 18.3117 43.274 18.8937 43.425 19.2817C43.601 19.7587 43.882 20.1917 44.247 20.5467C44.602 20.9117 45.035 21.1927 45.512 21.3687C45.9 21.5197 46.482 21.6987 47.555 21.7477C48.715 21.8007 49.062 21.8117 52 21.8117C54.938 21.8117 55.285 21.8007 56.445 21.7477C57.518 21.6987 58.1 21.5197 58.488 21.3687C59.001 21.1687 59.368 20.9317 59.753 20.5467C60.118 20.1917 60.399 19.7587 60.575 19.2817C60.726 18.8937 60.905 18.3117 60.954 17.2387C61.007 16.0787 61.018 15.7307 61.018 12.7937C61.018 9.8567 61.007 9.5087 60.954 8.3487C60.905 7.2757 60.726 6.6937 60.575 6.3057C60.375 5.7927 60.138 5.4257 59.753 5.0407C59.3979 4.67577 58.9657 4.39491 58.488 4.2187C58.1 4.0677 57.518 3.8887 56.445 3.8397ZM50.595 16.1847C51.3797 16.5113 52.2534 16.5554 53.0669 16.3094C53.8805 16.0634 54.5834 15.5426 55.0556 14.8359C55.5278 14.1293 55.7401 13.2806 55.656 12.4348C55.572 11.589 55.197 10.7987 54.595 10.1987C54.2112 9.81518 53.7472 9.52151 53.2363 9.33885C52.7255 9.15618 52.1804 9.08906 51.6405 9.14232C51.1006 9.19557 50.5792 9.36788 50.1138 9.64683C49.6485 9.92579 49.2507 10.3044 48.9493 10.7556C48.6479 11.2067 48.4502 11.719 48.3705 12.2557C48.2908 12.7923 48.3312 13.34 48.4885 13.8592C48.6459 14.3784 48.9165 14.8563 49.2807 15.2584C49.645 15.6605 50.0938 15.9769 50.595 16.1847ZM48.002 8.7957C48.527 8.27068 49.1503 7.8542 49.8363 7.57006C50.5223 7.28592 51.2575 7.13968 52 7.13968C52.7425 7.13968 53.4777 7.28592 54.1637 7.57006C54.8497 7.8542 55.473 8.27068 55.998 8.7957C56.523 9.32073 56.9395 9.94402 57.2236 10.63C57.5078 11.316 57.654 12.0512 57.654 12.7937C57.654 13.5362 57.5078 14.2714 57.2236 14.9574C56.9395 15.6434 56.523 16.2667 55.998 16.7917C54.9377 17.852 53.4995 18.4477 52 18.4477C50.5005 18.4477 49.0623 17.852 48.002 16.7917C46.9417 15.7314 46.346 14.2932 46.346 12.7937C46.346 11.2942 46.9417 9.85604 48.002 8.7957ZM58.908 7.9817C59.0381 7.85897 59.1423 7.71138 59.2143 7.54768C59.2863 7.38397 59.3248 7.20747 59.3274 7.02863C59.33 6.84979 59.2967 6.67225 59.2295 6.50651C59.1622 6.34077 59.0624 6.19021 58.936 6.06374C58.8095 5.93727 58.6589 5.83746 58.4932 5.77022C58.3275 5.70298 58.1499 5.66968 57.9711 5.67228C57.7922 5.67489 57.6157 5.71336 57.452 5.7854C57.2883 5.85744 57.1407 5.9616 57.018 6.0917C56.7793 6.34473 56.6486 6.68082 56.6537 7.02863C56.6588 7.37644 56.7992 7.70858 57.0452 7.95454C57.2911 8.20051 57.6233 8.34093 57.9711 8.346C58.3189 8.35107 58.655 8.22039 58.908 7.9817Z" fill="#0FA958"/>
<defs>
<clipPath id="clip0_1_1064">
<rect width="24" height="24" fill="white" transform="translate(80 0.793701)"/>
</clipPath>
<clipPath id="clip1_1_1064">
<rect width="24" height="24" fill="white" transform="translate(160 0.793701)"/>
</clipPath>
<clipPath id="clip2_1_1064">
<rect width="24" height="24" fill="white" transform="translate(120 0.793701)"/>
</clipPath>
<clipPath id="clip3_1_1064">
<rect width="24" height="24" fill="white" transform="translate(0 1.7937)"/>
</clipPath>
</defs>
</svg>
