<svg width="43" height="44" viewBox="0 0 43 44" fill="none" xmlns="http://www.w3.org/2000/svg">
<g clip-path="url(#clip0_1_1041)">
<path d="M1.13964 21.6641C1.13865 25.2503 2.07571 28.7521 3.85751 31.8385L0.969238 42.3841L11.7613 39.5544C14.7462 41.1794 18.0906 42.0308 21.4892 42.031H21.4982C32.7176 42.031 41.8504 32.9015 41.8552 21.6801C41.8574 16.2426 39.7417 11.1294 35.8978 7.2826C32.0546 3.4361 26.9433 1.31663 21.4973 1.31415C10.2766 1.31415 1.14444 10.4432 1.13981 21.6641" fill="url(#paint0_linear_1_1041)"/>
<path d="M0.412374 21.6575C0.411216 25.3728 1.38186 28.9998 3.22719 32.1968L0.235352 43.1203L11.4144 40.1892C14.4946 41.8686 17.9625 42.7541 21.4914 42.7554H21.5005C33.1224 42.7554 42.5833 33.2974 42.5883 21.6744C42.5903 16.0414 40.3985 10.7445 36.4173 6.75984C32.4357 2.77569 27.1415 0.579953 21.5005 0.577637C9.8766 0.577637 0.417171 10.0343 0.412539 21.6575H0.412374ZM7.06973 31.6462L6.65232 30.9836C4.89765 28.1936 3.97151 24.9695 3.97283 21.6588C3.97664 11.9979 11.8391 4.13793 21.5071 4.13793C26.1891 4.13992 30.5892 5.96506 33.8987 9.27653C37.208 12.5883 39.029 16.9907 39.0278 21.673C39.0235 31.334 31.1609 39.1949 21.5005 39.1949H21.4935C18.348 39.1933 15.263 38.3485 12.5726 36.7522L11.9324 36.3725L5.29851 38.1118L7.06973 31.646V31.6462Z" fill="url(#paint1_linear_1_1041)"/>
<path d="M16.2303 12.8447C15.8356 11.9674 15.4201 11.9497 15.0448 11.9343C14.7374 11.9211 14.386 11.9221 14.0349 11.9221C13.6835 11.9221 13.1126 12.0543 12.63 12.5812C12.1469 13.1086 10.7856 14.3832 10.7856 16.9755C10.7856 19.5679 12.6738 22.0732 12.937 22.4251C13.2006 22.7763 16.5822 28.2663 21.9379 30.3784C26.3889 32.1335 27.2947 31.7844 28.2607 31.6964C29.2269 31.6087 31.3783 30.4222 31.8172 29.1918C32.2564 27.9616 32.2564 26.9071 32.1247 26.6867C31.9931 26.4672 31.6417 26.3353 31.1147 26.0719C30.5876 25.8084 27.9972 24.5337 27.5142 24.3578C27.0311 24.1821 26.6799 24.0944 26.3285 24.622C25.9771 25.1488 24.9681 26.3353 24.6605 26.6867C24.3533 27.0389 24.0458 27.0828 23.519 26.8192C22.9917 26.5549 21.2948 25.9991 19.2815 24.2043C17.7151 22.8076 16.6576 21.0829 16.3503 20.5553C16.0429 20.0285 16.3173 19.743 16.5815 19.4804C16.8183 19.2443 17.1086 18.8651 17.3724 18.5576C17.6351 18.2499 17.7228 18.0303 17.8985 17.6789C18.0743 17.3272 17.9863 17.0195 17.8548 16.7559C17.7228 16.4924 16.6988 13.8867 16.2303 12.8449" fill="white"/>
</g>
<defs>
<linearGradient id="paint0_linear_1_1041" x1="21.4122" y1="42.3841" x2="21.4122" y2="1.31415" gradientUnits="userSpaceOnUse">
<stop stop-color="#1FAF38"/>
<stop offset="1" stop-color="#60D669"/>
</linearGradient>
<linearGradient id="paint1_linear_1_1041" x1="21.4118" y1="43.1203" x2="21.4118" y2="0.577637" gradientUnits="userSpaceOnUse">
<stop stop-color="#F9F9F9"/>
<stop offset="1" stop-color="white"/>
</linearGradient>
<clipPath id="clip0_1_1041">
<rect width="42.3529" height="42.6838" fill="white" transform="translate(0.235352 0.577637)"/>
</clipPath>
</defs>
</svg>
