<svg width="20" height="21" viewBox="0 0 20 21" fill="none" xmlns="http://www.w3.org/2000/svg">
<path d="M18 8.1667V15.2937C18 15.9567 17.7366 16.5926 17.2678 17.0615C16.7989 17.5303 16.163 17.7937 15.5 17.7937H4.5C3.83696 17.7937 3.20107 17.5303 2.73223 17.0615C2.26339 16.5926 2 15.9567 2 15.2937V8.1667L9.746 12.7247C9.82295 12.7701 9.91066 12.794 10 12.794C10.0893 12.794 10.177 12.7701 10.254 12.7247L18 8.1667ZM15.5 4.7937C16.1151 4.7936 16.7087 5.02031 17.1672 5.43044C17.6257 5.84057 17.9168 6.40534 17.985 7.0167L10 11.7137L2.015 7.0167C2.08316 6.40534 2.37432 5.84057 2.83279 5.43044C3.29127 5.02031 3.88485 4.7936 4.5 4.7937H15.5Z" fill="#0FA958"/>
</svg>
