<svg width="27" height="26" viewBox="0 0 27 26" fill="none" xmlns="http://www.w3.org/2000/svg">
<path d="M15.3644 15.5709L16.3667 14.5686C16.5017 14.4353 16.6725 14.344 16.8584 14.3059C17.0443 14.2678 17.2372 14.2844 17.4138 14.3538L18.6354 14.8416C18.8138 14.914 18.9668 15.0376 19.0751 15.1969C19.1834 15.3561 19.2422 15.5439 19.2439 15.7365V17.9738C19.2429 18.1048 19.2153 18.2342 19.163 18.3543C19.1106 18.4744 19.0344 18.5826 18.9391 18.6725C18.8438 18.7624 18.7313 18.8321 18.6083 18.8773C18.4854 18.9226 18.3545 18.9425 18.2237 18.9358C9.6638 18.4033 7.93661 11.1545 7.60996 8.38025C7.5948 8.24401 7.60865 8.10611 7.65061 7.97561C7.69257 7.84512 7.76169 7.72498 7.85341 7.62312C7.94513 7.52125 8.05739 7.43996 8.18278 7.38459C8.30818 7.32922 8.44388 7.30103 8.58095 7.30187H10.7422C10.935 7.30244 11.1233 7.36069 11.2828 7.46914C11.4423 7.57759 11.5657 7.73127 11.6371 7.91041L12.1248 9.13198C12.1965 9.30786 12.2148 9.50097 12.1774 9.68719C12.14 9.87341 12.0486 10.0445 11.9145 10.179L10.9122 11.1813C10.9122 11.1813 11.4894 15.0877 15.3644 15.5709Z" fill="#0A831E"/>
<path d="M25.8996 12.7995C25.8996 19.507 20.3203 24.9583 13.4208 24.9583C6.52129 24.9583 0.942039 19.507 0.942039 12.7995C0.942039 6.09198 6.52129 0.640708 13.4208 0.640708C20.3203 0.640708 25.8996 6.09198 25.8996 12.7995Z" stroke="#0A831E" stroke-width="0.639937"/>
</svg>
