<svg width="25" height="24" viewBox="0 0 25 24" fill="none" xmlns="http://www.w3.org/2000/svg">
<path d="M14.2099 14.5656L15.1557 13.6198C15.2831 13.494 15.4442 13.4079 15.6196 13.3719C15.795 13.3359 15.9771 13.3516 16.1437 13.4171L17.2964 13.8774C17.4648 13.9457 17.6092 14.0624 17.7113 14.2126C17.8135 14.3629 17.869 14.5401 17.8706 14.7218V16.833C17.8696 16.9566 17.8436 17.0787 17.7942 17.1921C17.7448 17.3054 17.6729 17.4075 17.583 17.4923C17.4931 17.5771 17.3869 17.6429 17.2709 17.6856C17.1549 17.7283 17.0314 17.747 16.9079 17.7408C8.83063 17.2383 7.20082 10.3982 6.89259 7.78032C6.87828 7.65177 6.89135 7.52164 6.93094 7.3985C6.97054 7.27536 7.03576 7.162 7.12231 7.06588C7.20886 6.96975 7.31478 6.89305 7.43311 6.8408C7.55144 6.78855 7.67948 6.76195 7.80883 6.76274H9.84821C10.0302 6.76328 10.2079 6.81825 10.3583 6.92059C10.5088 7.02292 10.6253 7.16793 10.6927 7.33698L11.1529 8.48967C11.2206 8.65564 11.2378 8.83786 11.2025 9.01358C11.1672 9.1893 11.081 9.35073 10.9545 9.47769L10.0087 10.4235C10.0087 10.4235 10.5533 14.1096 14.2099 14.5656Z" fill="#0A831E"/>
<path d="M24.1521 11.9503C24.1521 18.2796 18.8874 23.4236 12.3768 23.4236C5.86631 23.4236 0.601611 18.2796 0.601611 11.9503C0.601611 5.62091 5.86631 0.476978 12.3768 0.476978C18.8874 0.476978 24.1521 5.62091 24.1521 11.9503Z" stroke="#0A831E" stroke-width="0.603858"/>
</svg>
