<svg width="25" height="25" viewBox="0 0 25 25" fill="none" xmlns="http://www.w3.org/2000/svg">
<path d="M14.2099 15.0878L15.1557 14.142C15.2831 14.0162 15.4442 13.9301 15.6196 13.8941C15.795 13.8582 15.9771 13.8739 16.1437 13.9394L17.2964 14.3996C17.4648 14.4679 17.6092 14.5846 17.7113 14.7349C17.8135 14.8852 17.869 15.0623 17.8706 15.2441V17.3552C17.8696 17.4788 17.8436 17.601 17.7942 17.7143C17.7448 17.8276 17.6729 17.9298 17.583 18.0146C17.4931 18.0994 17.3869 18.1651 17.2709 18.2078C17.1549 18.2505 17.0314 18.2693 16.9079 18.263C8.83063 17.7606 7.20082 10.9204 6.89259 8.30257C6.87828 8.17402 6.89135 8.04389 6.93094 7.92075C6.97054 7.79761 7.03576 7.68425 7.12231 7.58813C7.20886 7.492 7.31478 7.41529 7.43311 7.36305C7.55144 7.3108 7.67948 7.2842 7.80883 7.28499H9.84821C10.0302 7.28553 10.2079 7.3405 10.3583 7.44283C10.5088 7.54517 10.6253 7.69018 10.6927 7.85923L11.1529 9.01192C11.2206 9.17789 11.2378 9.36011 11.2025 9.53583C11.1672 9.71155 11.081 9.87298 10.9545 9.99994L10.0087 10.9457C10.0087 10.9457 10.5533 14.6318 14.2099 15.0878Z" fill="#0A831E"/>
<path d="M24.1521 12.4725C24.1521 18.8019 18.8874 23.9458 12.3768 23.9458C5.86631 23.9458 0.601611 18.8019 0.601611 12.4725C0.601611 6.14318 5.86631 0.999255 12.3768 0.999255C18.8874 0.999255 24.1521 6.14318 24.1521 12.4725Z" stroke="#0A831E" stroke-width="0.603858"/>
</svg>
