<svg width="17" height="18" viewBox="0 0 17 18" fill="none" xmlns="http://www.w3.org/2000/svg">
<path d="M10.8006 12.205L11.9906 11.015C12.1508 10.8567 12.3536 10.7483 12.5743 10.7031C12.795 10.6578 13.024 10.6776 13.2337 10.76L14.684 11.339C14.8959 11.425 15.0775 11.5718 15.2061 11.7609C15.3347 11.95 15.4044 12.1729 15.4065 12.4015V15.0578C15.4053 15.2133 15.3726 15.367 15.3104 15.5096C15.2482 15.6521 15.1578 15.7807 15.0446 15.8874C14.9314 15.9941 14.7979 16.0768 14.6519 16.1305C14.5059 16.1842 14.3506 16.2079 14.1952 16.2C4.03243 15.5678 1.9818 6.96153 1.59399 3.66779C1.57599 3.50604 1.59243 3.34231 1.64225 3.18738C1.69207 3.03245 1.77413 2.88982 1.88302 2.76888C1.99192 2.64793 2.1252 2.55142 2.27407 2.48568C2.42295 2.41994 2.58406 2.38647 2.7468 2.38747H5.31274C5.54171 2.38815 5.76525 2.45731 5.95459 2.58607C6.14394 2.71482 6.29043 2.89728 6.37524 3.10997L6.9543 4.56029C7.03944 4.7691 7.06116 4.99838 7.01675 5.21947C6.97234 5.44056 6.86378 5.64366 6.70461 5.80341L5.51461 6.99341C5.51461 6.99341 6.19993 11.6312 10.8006 12.205Z" fill="#0FA958"/>
</svg>
