<svg width="25" height="25" viewBox="0 0 25 25" fill="none" xmlns="http://www.w3.org/2000/svg">
<path d="M14.2099 15.2304L15.1557 14.2846C15.2831 14.1587 15.4442 14.0726 15.6196 14.0367C15.795 14.0007 15.9771 14.0164 16.1437 14.0819L17.2964 14.5421C17.4648 14.6105 17.6092 14.7271 17.7113 14.8774C17.8135 15.0277 17.869 15.2049 17.8706 15.3866V17.4977C17.8696 17.6214 17.8436 17.7435 17.7942 17.8568C17.7448 17.9701 17.6729 18.0723 17.583 18.1571C17.4931 18.2419 17.3869 18.3076 17.2709 18.3503C17.1549 18.393 17.0314 18.4118 16.9079 18.4055C8.83063 17.9031 7.20082 11.0629 6.89259 8.44509C6.87828 8.31653 6.89135 8.18641 6.93094 8.06327C6.97054 7.94013 7.03576 7.82677 7.12231 7.73064C7.20886 7.63452 7.31478 7.55781 7.43311 7.50556C7.55144 7.45332 7.67948 7.42671 7.80883 7.42751H9.84821C10.0302 7.42805 10.2079 7.48302 10.3583 7.58535C10.5088 7.68768 10.6253 7.8327 10.6927 8.00174L11.1529 9.15444C11.2206 9.3204 11.2378 9.50263 11.2025 9.67835C11.1672 9.85407 11.081 10.0155 10.9545 10.1425L10.0087 11.0883C10.0087 11.0883 10.5533 14.7743 14.2099 15.2304Z" fill="#0A831E"/>
<path d="M24.1521 12.615C24.1521 18.9444 18.8874 24.0883 12.3768 24.0883C5.86631 24.0883 0.601611 18.9444 0.601611 12.615C0.601611 6.28564 5.86631 1.14171 12.3768 1.14171C18.8874 1.14171 24.1521 6.28564 24.1521 12.615Z" stroke="#0A831E" stroke-width="0.603858"/>
</svg>
