<svg width="25" height="24" viewBox="0 0 25 24" fill="none" xmlns="http://www.w3.org/2000/svg">
<path d="M14.2099 14.4202L15.1557 13.4744C15.2831 13.3486 15.4442 13.2624 15.6196 13.2265C15.795 13.1905 15.9771 13.2062 16.1437 13.2717L17.2964 13.7319C17.4648 13.8003 17.6092 13.917 17.7113 14.0672C17.8135 14.2175 17.869 14.3947 17.8706 14.5764V16.6876C17.8696 16.8112 17.8436 16.9333 17.7942 17.0466C17.7448 17.1599 17.6729 17.2621 17.583 17.3469C17.4931 17.4317 17.3869 17.4975 17.2709 17.5401C17.1549 17.5828 17.0314 17.6016 16.9079 17.5954C8.83063 17.0929 7.20082 10.2527 6.89259 7.63491C6.87828 7.50635 6.89135 7.37622 6.93094 7.25309C6.97054 7.12995 7.03576 7.01659 7.12231 6.92046C7.20886 6.82434 7.31478 6.74763 7.43311 6.69538C7.55144 6.64313 7.67948 6.61653 7.80883 6.61733H9.84821C10.0302 6.61787 10.2079 6.67284 10.3583 6.77517C10.5088 6.8775 10.6253 7.02252 10.6927 7.19156L11.1529 8.34426C11.2206 8.51022 11.2378 8.69245 11.2025 8.86817C11.1672 9.04389 11.081 9.20531 10.9545 9.33228L10.0087 10.2781C10.0087 10.2781 10.5533 13.9642 14.2099 14.4202Z" fill="#0A831E"/>
<path d="M24.1521 11.8049C24.1521 18.1343 18.8874 23.2782 12.3768 23.2782C5.86631 23.2782 0.601611 18.1343 0.601611 11.8049C0.601611 5.47552 5.86631 0.331592 12.3768 0.331592C18.8874 0.331592 24.1521 5.47552 24.1521 11.8049Z" stroke="#0A831E" stroke-width="0.603858"/>
</svg>
