<svg width="25" height="25" viewBox="0 0 25 25" fill="none" xmlns="http://www.w3.org/2000/svg">
<path d="M14.2099 14.8979L15.1557 13.9521C15.2831 13.8263 15.4442 13.7402 15.6196 13.7042C15.795 13.6682 15.9771 13.6839 16.1437 13.7494L17.2964 14.2097C17.4648 14.278 17.6092 14.3947 17.7113 14.545C17.8135 14.6952 17.869 14.8724 17.8706 15.0541V17.1653C17.8696 17.2889 17.8436 17.411 17.7942 17.5244C17.7448 17.6377 17.6729 17.7398 17.583 17.8246C17.4931 17.9094 17.3869 17.9752 17.2709 18.0179C17.1549 18.0606 17.0314 18.0794 16.9079 18.0731C8.83063 17.5706 7.20082 10.7305 6.89259 8.11263C6.87828 7.98407 6.89135 7.85395 6.93094 7.73081C6.97054 7.60767 7.03576 7.49431 7.12231 7.39818C7.20886 7.30206 7.31478 7.22535 7.43311 7.1731C7.55144 7.12086 7.67948 7.09426 7.80883 7.09505H9.84821C10.0302 7.09559 10.2079 7.15056 10.3583 7.25289C10.5088 7.35522 10.6253 7.50024 10.6927 7.66928L11.1529 8.82198C11.2206 8.98794 11.2378 9.17017 11.2025 9.34589C11.1672 9.52161 11.081 9.68303 10.9545 9.81L10.0087 10.7558C10.0087 10.7558 10.5533 14.4419 14.2099 14.8979Z" fill="#0A831E"/>
<path d="M24.1521 12.2826C24.1521 18.612 18.8874 23.7559 12.3768 23.7559C5.86631 23.7559 0.601611 18.612 0.601611 12.2826C0.601611 5.95324 5.86631 0.809314 12.3768 0.809314C18.8874 0.809314 24.1521 5.95324 24.1521 12.2826Z" stroke="#0A831E" stroke-width="0.603858"/>
</svg>
