<svg width="25" height="25" viewBox="0 0 25 25" fill="none" xmlns="http://www.w3.org/2000/svg">
<path d="M14.2099 15.2332L15.1557 14.2874C15.2831 14.1616 15.4442 14.0755 15.6196 14.0395C15.795 14.0035 15.9771 14.0192 16.1437 14.0847L17.2964 14.545C17.4648 14.6133 17.6092 14.73 17.7113 14.8803C17.8135 15.0306 17.869 15.2077 17.8706 15.3894V17.5006C17.8696 17.6242 17.8436 17.7464 17.7942 17.8597C17.7448 17.973 17.6729 18.0751 17.583 18.1599C17.4931 18.2448 17.3869 18.3105 17.2709 18.3532C17.1549 18.3959 17.0314 18.4147 16.9079 18.4084C8.83063 17.9059 7.20082 11.0658 6.89259 8.44795C6.87828 8.31939 6.89135 8.18927 6.93094 8.06613C6.97054 7.94299 7.03576 7.82963 7.12231 7.7335C7.20886 7.63738 7.31478 7.56067 7.43311 7.50842C7.55144 7.45618 7.67948 7.42957 7.80883 7.43037H9.84821C10.0302 7.43091 10.2079 7.48588 10.3583 7.58821C10.5088 7.69054 10.6253 7.83556 10.6927 8.0046L11.1529 9.1573C11.2206 9.32326 11.2378 9.50549 11.2025 9.68121C11.1672 9.85693 11.081 10.0184 10.9545 10.1453L10.0087 11.0911C10.0087 11.0911 10.5533 14.7772 14.2099 15.2332Z" fill="#0A831E"/>
<path d="M24.1521 12.6179C24.1521 18.9473 18.8874 24.0912 12.3768 24.0912C5.86631 24.0912 0.601611 18.9473 0.601611 12.6179C0.601611 6.28856 5.86631 1.14463 12.3768 1.14463C18.8874 1.14463 24.1521 6.28856 24.1521 12.6179Z" stroke="#0A831E" stroke-width="0.603858"/>
</svg>
