<svg width="25" height="25" viewBox="0 0 25 25" fill="none" xmlns="http://www.w3.org/2000/svg">
<path d="M14.2301 15.1887L15.1759 14.2429C15.3033 14.1171 15.4645 14.031 15.6399 13.995C15.8153 13.959 15.9973 13.9747 16.164 14.0402L17.3166 14.5005C17.485 14.5688 17.6294 14.6855 17.7316 14.8358C17.8338 14.986 17.8892 15.1632 17.8909 15.3449V17.4561C17.8899 17.5797 17.8639 17.7018 17.8145 17.8152C17.7651 17.9285 17.6932 18.0306 17.6033 18.1154C17.5133 18.2002 17.4071 18.266 17.2911 18.3087C17.1751 18.3514 17.0517 18.3702 16.9282 18.3639C8.85089 17.8614 7.22108 11.0213 6.91285 8.40343C6.89854 8.27488 6.91161 8.14475 6.95121 8.02161C6.9908 7.89847 7.05602 7.78511 7.14257 7.68899C7.22912 7.59286 7.33505 7.51615 7.45337 7.46391C7.5717 7.41166 7.69975 7.38506 7.82909 7.38585H9.86847C10.0505 7.38639 10.2281 7.44136 10.3786 7.54369C10.5291 7.64603 10.6455 7.79104 10.7129 7.96009L11.1732 9.11278C11.2408 9.27875 11.2581 9.46097 11.2228 9.63669C11.1875 9.81241 11.1012 9.97384 10.9747 10.1008L10.0289 11.0466C10.0289 11.0466 10.5736 14.7327 14.2301 15.1887Z" fill="#0A831E"/>
<path d="M24.1727 12.5734C24.1727 18.9028 18.908 24.0467 12.3975 24.0467C5.88694 24.0467 0.622241 18.9028 0.622241 12.5734C0.622241 6.24406 5.88694 1.10013 12.3975 1.10013C18.908 1.10013 24.1727 6.24406 24.1727 12.5734Z" stroke="#0A831E" stroke-width="0.603858"/>
</svg>
