<svg width="11" height="12" viewBox="0 0 11 12" fill="none" xmlns="http://www.w3.org/2000/svg">
<path d="M5.5 5.54161C5.8797 5.54161 6.1875 5.23381 6.1875 4.85411C6.1875 4.47441 5.8797 4.16661 5.5 4.16661C5.1203 4.16661 4.8125 4.47441 4.8125 4.85411C4.8125 5.23381 5.1203 5.54161 5.5 5.54161Z" fill="white"/>
<path d="M5.49992 1.41661C4.53378 1.41656 3.60666 1.79783 2.92007 2.47756C2.23348 3.15728 1.84291 4.08052 1.83325 5.04661C1.83325 7.55828 5.0645 10.3541 5.202 10.4733C5.28502 10.5443 5.39067 10.5833 5.49992 10.5833C5.60916 10.5833 5.71482 10.5443 5.79784 10.4733C5.95825 10.3541 9.16659 7.55828 9.16659 5.04661C9.15692 4.08052 8.76636 3.15728 8.07977 2.47756C7.39318 1.79783 6.46606 1.41656 5.49992 1.41661ZM5.49992 6.45828C5.18264 6.45828 4.8725 6.36419 4.60869 6.18793C4.34489 6.01166 4.13928 5.76112 4.01786 5.468C3.89645 5.17488 3.86468 4.85233 3.92658 4.54115C3.98847 4.22998 4.14125 3.94414 4.3656 3.71979C4.58995 3.49545 4.87578 3.34266 5.18696 3.28077C5.49814 3.21887 5.82068 3.25064 6.11381 3.37205C6.40693 3.49347 6.65747 3.69908 6.83373 3.96288C7.01 4.22669 7.10409 4.53684 7.10409 4.85411C7.10409 5.27956 6.93508 5.68759 6.63424 5.98843C6.3334 6.28927 5.92537 6.45828 5.49992 6.45828Z" fill="white"/>
</svg>
