<svg width="11" height="12" viewBox="0 0 11 12" fill="none" xmlns="http://www.w3.org/2000/svg">
<path d="M5.5 5.54163C5.8797 5.54163 6.1875 5.23382 6.1875 4.85413C6.1875 4.47443 5.8797 4.16663 5.5 4.16663C5.1203 4.16663 4.8125 4.47443 4.8125 4.85413C4.8125 5.23382 5.1203 5.54163 5.5 5.54163Z" fill="white"/>
<path d="M5.50016 1.41663C4.53402 1.41658 3.6069 1.79785 2.92032 2.47757C2.23373 3.1573 1.84316 4.08053 1.8335 5.04663C1.8335 7.55829 5.06475 10.3541 5.20225 10.4733C5.28527 10.5443 5.39092 10.5833 5.50016 10.5833C5.60941 10.5833 5.71506 10.5443 5.79808 10.4733C5.9585 10.3541 9.16683 7.55829 9.16683 5.04663C9.15717 4.08053 8.7666 3.1573 8.08001 2.47757C7.39342 1.79785 6.4663 1.41658 5.50016 1.41663ZM5.50016 6.45829C5.18289 6.45829 4.87274 6.36421 4.60894 6.18794C4.34513 6.01167 4.13952 5.76114 4.01811 5.46801C3.89669 5.17489 3.86492 4.85235 3.92682 4.54117C3.98872 4.22999 4.1415 3.94416 4.36585 3.71981C4.59019 3.49546 4.87603 3.34268 5.18721 3.28078C5.49838 3.21889 5.82093 3.25065 6.11405 3.37207C6.40717 3.49348 6.65771 3.6991 6.83398 3.9629C7.01025 4.2267 7.10433 4.53685 7.10433 4.85413C7.10433 5.27958 6.93532 5.6876 6.63448 5.98844C6.33364 6.28928 5.92561 6.45829 5.50016 6.45829Z" fill="white"/>
</svg>
