<svg width="11" height="12" viewBox="0 0 11 12" fill="none" xmlns="http://www.w3.org/2000/svg">
<path d="M5.5 5.54163C5.8797 5.54163 6.1875 5.23382 6.1875 4.85413C6.1875 4.47443 5.8797 4.16663 5.5 4.16663C5.1203 4.16663 4.8125 4.47443 4.8125 4.85413C4.8125 5.23382 5.1203 5.54163 5.5 5.54163Z" fill="white"/>
<path d="M5.49992 1.41663C4.53378 1.41658 3.60666 1.79785 2.92007 2.47757C2.23348 3.1573 1.84291 4.08053 1.83325 5.04663C1.83325 7.55829 5.0645 10.3541 5.202 10.4733C5.28502 10.5443 5.39067 10.5833 5.49992 10.5833C5.60916 10.5833 5.71482 10.5443 5.79784 10.4733C5.95825 10.3541 9.16659 7.55829 9.16659 5.04663C9.15692 4.08053 8.76636 3.1573 8.07977 2.47757C7.39318 1.79785 6.46606 1.41658 5.49992 1.41663ZM5.49992 6.45829C5.18264 6.45829 4.8725 6.36421 4.60869 6.18794C4.34489 6.01167 4.13928 5.76114 4.01786 5.46801C3.89645 5.17489 3.86468 4.85235 3.92658 4.54117C3.98847 4.22999 4.14125 3.94416 4.3656 3.71981C4.58995 3.49546 4.87578 3.34268 5.18696 3.28078C5.49814 3.21889 5.82068 3.25065 6.11381 3.37207C6.40693 3.49348 6.65747 3.6991 6.83373 3.9629C7.01 4.2267 7.10409 4.53685 7.10409 4.85413C7.10409 5.27958 6.93508 5.6876 6.63424 5.98844C6.3334 6.28928 5.92537 6.45829 5.49992 6.45829Z" fill="white"/>
</svg>
