<svg width="18" height="19" viewBox="0 0 18 19" fill="none" xmlns="http://www.w3.org/2000/svg">
<path d="M9 9.04376C9.62132 9.04376 10.125 8.54008 10.125 7.91876C10.125 7.29744 9.62132 6.79376 9 6.79376C8.37868 6.79376 7.875 7.29744 7.875 7.91876C7.875 8.54008 8.37868 9.04376 9 9.04376Z" fill="#0FA958"/>
<path d="M8.99951 2.29376C7.41855 2.29368 5.90145 2.91758 4.77794 4.02986C3.65443 5.14213 3.01532 6.65288 2.99951 8.23376C2.99951 12.3438 8.28701 16.9188 8.51201 17.1138C8.64786 17.23 8.82075 17.2938 8.99951 17.2938C9.17828 17.2938 9.35116 17.23 9.48701 17.1138C9.74951 16.9188 14.9995 12.3438 14.9995 8.23376C14.9837 6.65288 14.3446 5.14213 13.2211 4.02986C12.0976 2.91758 10.5805 2.29368 8.99951 2.29376ZM8.99951 10.5438C8.48034 10.5438 7.97282 10.3898 7.54114 10.1014C7.10946 9.81293 6.77301 9.40296 6.57433 8.92331C6.37565 8.44365 6.32366 7.91585 6.42495 7.40665C6.52624 6.89745 6.77624 6.42972 7.14336 6.06261C7.51047 5.69549 7.9782 5.44549 8.4874 5.3442C8.9966 5.24291 9.5244 5.2949 10.0041 5.49358C10.4837 5.69226 10.8937 6.02871 11.1821 6.46039C11.4706 6.89207 11.6245 7.39959 11.6245 7.91876C11.6245 8.61496 11.3479 9.28263 10.8557 9.77492C10.3634 10.2672 9.6957 10.5438 8.99951 10.5438Z" fill="#0FA958"/>
</svg>
