<svg width="11" height="12" viewBox="0 0 11 12" fill="none" xmlns="http://www.w3.org/2000/svg">
<path d="M5.5 5.54161C5.8797 5.54161 6.1875 5.23381 6.1875 4.85411C6.1875 4.47441 5.8797 4.16661 5.5 4.16661C5.1203 4.16661 4.8125 4.47441 4.8125 4.85411C4.8125 5.23381 5.1203 5.54161 5.5 5.54161Z" fill="white"/>
<path d="M5.50016 1.41661C4.53402 1.41656 3.6069 1.79783 2.92032 2.47756C2.23373 3.15728 1.84316 4.08052 1.8335 5.04661C1.8335 7.55828 5.06475 10.3541 5.20225 10.4733C5.28527 10.5443 5.39092 10.5833 5.50016 10.5833C5.60941 10.5833 5.71506 10.5443 5.79808 10.4733C5.9585 10.3541 9.16683 7.55828 9.16683 5.04661C9.15717 4.08052 8.7666 3.15728 8.08001 2.47756C7.39342 1.79783 6.4663 1.41656 5.50016 1.41661ZM5.50016 6.45828C5.18289 6.45828 4.87274 6.36419 4.60894 6.18793C4.34513 6.01166 4.13952 5.76112 4.01811 5.468C3.89669 5.17488 3.86492 4.85233 3.92682 4.54115C3.98872 4.22998 4.1415 3.94414 4.36585 3.71979C4.59019 3.49545 4.87603 3.34266 5.18721 3.28077C5.49838 3.21887 5.82093 3.25064 6.11405 3.37205C6.40717 3.49347 6.65771 3.69908 6.83398 3.96288C7.01025 4.22669 7.10433 4.53684 7.10433 4.85411C7.10433 5.27956 6.93532 5.68759 6.63448 5.98843C6.33364 6.28927 5.92561 6.45828 5.50016 6.45828Z" fill="white"/>
</svg>
