<svg width="11" height="12" viewBox="0 0 11 12" fill="none" xmlns="http://www.w3.org/2000/svg">
<path d="M5.5 5.54163C5.8797 5.54163 6.1875 5.23382 6.1875 4.85413C6.1875 4.47443 5.8797 4.16663 5.5 4.16663C5.1203 4.16663 4.8125 4.47443 4.8125 4.85413C4.8125 5.23382 5.1203 5.54163 5.5 5.54163Z" fill="white"/>
<path d="M5.49967 1.41663C4.53353 1.41658 3.60642 1.79785 2.91983 2.47757C2.23324 3.1573 1.84267 4.08053 1.83301 5.04663C1.83301 7.55829 5.06426 10.3541 5.20176 10.4733C5.28478 10.5443 5.39043 10.5833 5.49967 10.5833C5.60892 10.5833 5.71457 10.5443 5.79759 10.4733C5.95801 10.3541 9.16634 7.55829 9.16634 5.04663C9.15668 4.08053 8.76611 3.1573 8.07952 2.47757C7.39293 1.79785 6.46582 1.41658 5.49967 1.41663ZM5.49967 6.45829C5.1824 6.45829 4.87225 6.36421 4.60845 6.18794C4.34464 6.01167 4.13903 5.76114 4.01762 5.46801C3.8962 5.17489 3.86443 4.85235 3.92633 4.54117C3.98823 4.22999 4.14101 3.94416 4.36536 3.71981C4.5897 3.49546 4.87554 3.34268 5.18672 3.28078C5.49789 3.21889 5.82044 3.25065 6.11356 3.37207C6.40669 3.49348 6.65722 3.6991 6.83349 3.9629C7.00976 4.2267 7.10384 4.53685 7.10384 4.85413C7.10384 5.27958 6.93483 5.6876 6.63399 5.98844C6.33315 6.28928 5.92513 6.45829 5.49967 6.45829Z" fill="white"/>
</svg>
