<svg width="11" height="12" viewBox="0 0 11 12" fill="none" xmlns="http://www.w3.org/2000/svg">
<path d="M5.5 5.54163C5.8797 5.54163 6.1875 5.23382 6.1875 4.85413C6.1875 4.47443 5.8797 4.16663 5.5 4.16663C5.1203 4.16663 4.8125 4.47443 4.8125 4.85413C4.8125 5.23382 5.1203 5.54163 5.5 5.54163Z" fill="white"/>
<path d="M5.49998 1.41663C4.53384 1.41658 3.60672 1.79785 2.92013 2.47757C2.23354 3.1573 1.84297 4.08053 1.83331 5.04663C1.83331 7.55829 5.06456 10.3541 5.20206 10.4733C5.28508 10.5443 5.39073 10.5833 5.49998 10.5833C5.60922 10.5833 5.71488 10.5443 5.7979 10.4733C5.95831 10.3541 9.16665 7.55829 9.16665 5.04663C9.15699 4.08053 8.76642 3.1573 8.07983 2.47757C7.39324 1.79785 6.46612 1.41658 5.49998 1.41663ZM5.49998 6.45829C5.18271 6.45829 4.87256 6.36421 4.60875 6.18794C4.34495 6.01167 4.13934 5.76114 4.01792 5.46801C3.89651 5.17489 3.86474 4.85235 3.92664 4.54117C3.98853 4.22999 4.14132 3.94416 4.36566 3.71981C4.59001 3.49546 4.87584 3.34268 5.18702 3.28078C5.4982 3.21889 5.82074 3.25065 6.11387 3.37207C6.40699 3.49348 6.65753 3.6991 6.8338 3.9629C7.01006 4.2267 7.10415 4.53685 7.10415 4.85413C7.10415 5.27958 6.93514 5.6876 6.6343 5.98844C6.33346 6.28928 5.92543 6.45829 5.49998 6.45829Z" fill="white"/>
</svg>
