<svg width="11" height="12" viewBox="0 0 11 12" fill="none" xmlns="http://www.w3.org/2000/svg">
<path d="M5.5 5.54163C5.8797 5.54163 6.1875 5.23382 6.1875 4.85413C6.1875 4.47443 5.8797 4.16663 5.5 4.16663C5.1203 4.16663 4.8125 4.47443 4.8125 4.85413C4.8125 5.23382 5.1203 5.54163 5.5 5.54163Z" fill="white"/>
<path d="M5.50004 1.41663C4.5339 1.41658 3.60678 1.79785 2.92019 2.47757C2.2336 3.1573 1.84304 4.08053 1.83337 5.04663C1.83337 7.55829 5.06462 10.3541 5.20212 10.4733C5.28514 10.5443 5.3908 10.5833 5.50004 10.5833C5.60929 10.5833 5.71494 10.5443 5.79796 10.4733C5.95837 10.3541 9.16671 7.55829 9.16671 5.04663C9.15705 4.08053 8.76648 3.1573 8.07989 2.47757C7.3933 1.79785 6.46618 1.41658 5.50004 1.41663ZM5.50004 6.45829C5.18277 6.45829 4.87262 6.36421 4.60881 6.18794C4.34501 6.01167 4.1394 5.76114 4.01798 5.46801C3.89657 5.17489 3.8648 4.85235 3.9267 4.54117C3.98859 4.22999 4.14138 3.94416 4.36572 3.71981C4.59007 3.49546 4.87591 3.34268 5.18708 3.28078C5.49826 3.21889 5.82081 3.25065 6.11393 3.37207C6.40705 3.49348 6.65759 3.6991 6.83386 3.9629C7.01012 4.2267 7.10421 4.53685 7.10421 4.85413C7.10421 5.27958 6.9352 5.6876 6.63436 5.98844C6.33352 6.28928 5.92549 6.45829 5.50004 6.45829Z" fill="white"/>
</svg>
