<svg width="92" height="93" viewBox="0 0 92 93" fill="none" xmlns="http://www.w3.org/2000/svg">
<path d="M45.9999 6.59436C23.8447 6.59436 5.88062 24.5585 5.88062 46.7136C5.88062 68.8688 23.8447 86.8329 45.9999 86.8329C68.155 86.8329 86.1192 68.8688 86.1192 46.7136C86.1192 24.5585 68.155 6.59436 45.9999 6.59436ZM58.9043 47.3316L39.3462 61.5614C39.239 61.6384 39.1126 61.6844 38.9809 61.6943C38.8492 61.7042 38.7174 61.6776 38.5999 61.6174C38.4823 61.5573 38.3836 61.4659 38.3147 61.3533C38.2457 61.2407 38.2091 61.1113 38.2089 60.9793V32.5376C38.2084 32.4053 38.2446 32.2754 38.3135 32.1624C38.3823 32.0495 38.4811 31.9578 38.5989 31.8975C38.7167 31.8372 38.8488 31.8107 38.9807 31.8209C39.1126 31.8312 39.2391 31.8778 39.3462 31.9555L58.9043 46.1763C58.9967 46.2417 59.0721 46.3282 59.1241 46.4287C59.1761 46.5292 59.2033 46.6408 59.2033 46.7539C59.2033 46.8671 59.1761 46.9786 59.1241 47.0791C59.0721 47.1796 58.9967 47.2662 58.9043 47.3316Z" fill="white" fill-opacity="0.5"/>
</svg>
