<svg width="134" height="134" viewBox="0 0 134 134" fill="none" xmlns="http://www.w3.org/2000/svg">
<path d="M67 8.375C34.6254 8.375 8.375 34.6254 8.375 67C8.375 99.3746 34.6254 125.625 67 125.625C99.3746 125.625 125.625 99.3746 125.625 67C125.625 34.6254 99.3746 8.375 67 8.375ZM85.8568 67.9029L57.2771 88.6965C57.1205 88.8091 56.9358 88.8763 56.7434 88.8908C56.551 88.9052 56.3583 88.8663 56.1866 88.7784C56.0148 88.6905 55.8706 88.557 55.7698 88.3925C55.669 88.228 55.6155 88.0388 55.6152 87.8459V46.285C55.6146 46.0916 55.6675 45.9019 55.7681 45.7368C55.8687 45.5717 56.013 45.4377 56.1851 45.3496C56.3572 45.2615 56.5504 45.2228 56.7431 45.2378C56.9359 45.2528 57.1207 45.3208 57.2771 45.4344L85.8568 66.2148C85.9919 66.3103 86.102 66.4368 86.178 66.5837C86.254 66.7306 86.2937 66.8935 86.2937 67.0589C86.2937 67.2243 86.254 67.3872 86.178 67.5341C86.102 67.681 85.9919 67.8074 85.8568 67.9029Z" fill="#222222" fill-opacity="0.5"/>
</svg>
