<svg width="113" height="23" viewBox="0 0 113 23" fill="none" xmlns="http://www.w3.org/2000/svg">
<path fill-rule="evenodd" clip-rule="evenodd" d="M39.5354 11.3304C39.5354 16.9322 43.6039 21.5904 48.925 22.535V14.397H46.1081V11.2675H48.925V8.7633C48.925 5.94642 50.74 4.38212 53.3071 4.38212C54.1202 4.38212 54.9972 4.507 55.8104 4.63188V7.51167H54.3709C52.9935 7.51167 52.6808 8.19992 52.6808 9.07691V11.2675H55.6855L55.185 14.397H52.6808V22.535C58.0019 21.5904 62.0704 16.9332 62.0704 11.3304C62.0704 5.09854 57 0 50.8029 0C44.6058 0 39.5354 5.09854 39.5354 11.3304Z" fill="white"/>
<path d="M11.2647 7.51007C9.19569 7.51007 7.50725 9.19851 7.50725 11.2675C7.50725 13.3365 9.19569 15.0249 11.2647 15.0249C13.3337 15.0249 15.0221 13.3365 15.0221 11.2675C15.0221 9.19851 13.3337 7.51007 11.2647 7.51007ZM22.5342 11.2675C22.5342 9.71153 22.5483 8.16966 22.4609 6.61651C22.3735 4.81249 21.9619 3.21143 20.6428 1.89224C19.3208 0.570232 17.7225 0.161509 15.9185 0.0741266C14.3625 -0.0132555 12.8206 0.000838429 11.2675 0.000838429C9.71153 0.000838429 8.16966 -0.0132555 6.61651 0.0741266C4.81249 0.161509 3.21143 0.57305 1.89224 1.89224C0.570232 3.21425 0.161509 4.81249 0.0741266 6.61651C-0.0132555 8.17248 0.000838429 9.71435 0.000838429 11.2675C0.000838429 12.8206 -0.0132555 14.3653 0.0741266 15.9185C0.161509 17.7225 0.573051 19.3236 1.89224 20.6428C3.21425 21.9648 4.81249 22.3735 6.61651 22.4609C8.17248 22.5483 9.71435 22.5342 11.2675 22.5342C12.8235 22.5342 14.3653 22.5483 15.9185 22.4609C17.7225 22.3735 19.3236 21.9619 20.6428 20.6428C21.9648 19.3207 22.3735 17.7225 22.4609 15.9185C22.5511 14.3653 22.5342 12.8235 22.5342 11.2675ZM11.2647 17.0488C8.06536 17.0488 5.48336 14.4668 5.48336 11.2675C5.48336 8.06818 8.06536 5.48618 11.2647 5.48618C14.464 5.48618 17.046 8.06818 17.046 11.2675C17.046 14.4668 14.464 17.0488 11.2647 17.0488ZM17.2828 6.5996C16.5358 6.5996 15.9326 5.99638 15.9326 5.2494C15.9326 4.50243 16.5358 3.89921 17.2828 3.89921C18.0298 3.89921 18.633 4.50243 18.633 5.2494C18.6332 5.42678 18.5984 5.60245 18.5306 5.76637C18.4629 5.93028 18.3634 6.07921 18.238 6.20463C18.1126 6.33006 17.9636 6.4295 17.7997 6.49728C17.6358 6.56505 17.4601 6.59982 17.2828 6.5996Z" fill="white"/>
<path d="M112.149 3.53574C111.958 2.8534 111.585 2.23564 111.071 1.74814C110.542 1.24564 109.894 0.886195 109.187 0.703724C106.544 0.0069798 95.9536 0.00697995 95.9536 0.00697995C91.5385 -0.0432523 87.1245 0.177682 82.7365 0.668535C82.0302 0.864486 81.3833 1.23196 80.8532 1.73828C80.3324 2.23938 79.9552 2.8573 79.7581 3.53433C79.2848 6.08448 79.0548 8.67383 79.0712 11.2675C79.0544 13.8588 79.2838 16.4473 79.7581 19.0006C79.951 19.6749 80.3268 20.29 80.849 20.7868C81.3712 21.2837 82.0215 21.6426 82.7365 21.8327C85.4151 22.528 95.9536 22.528 95.9536 22.528C100.374 22.5783 104.794 22.3574 109.187 21.8664C109.894 21.684 110.542 21.3245 111.071 20.822C111.585 20.3346 111.957 19.7168 112.148 19.0344C112.633 16.4853 112.869 13.8948 112.853 11.2999C112.889 8.69391 112.653 6.09126 112.149 3.53433V3.53574ZM92.5867 16.087V6.4494L101.398 11.2689L92.5867 16.087Z" fill="white"/>
</svg>
