<svg width="17" height="17" viewBox="0 0 17 17" fill="none" xmlns="http://www.w3.org/2000/svg">
<path d="M16.0676 14.9074L11.1093 9.83888C11.8787 8.82205 12.2949 7.57883 12.2949 6.2712C12.2949 4.70595 11.6973 3.23828 10.6167 2.13167C9.53603 1.02506 8.09645 0.416138 6.56713 0.416138C5.03782 0.416138 3.59823 1.02702 2.51759 2.13167C1.43504 3.23633 0.839355 4.70595 0.839355 6.2712C0.839355 7.8345 1.43695 9.30607 2.51759 10.4107C3.59823 11.5173 5.03591 12.1263 6.56713 12.1263C7.84634 12.1263 9.06063 11.7008 10.0553 10.9162L15.0137 15.9828C15.0282 15.9977 15.0455 16.0095 15.0645 16.0175C15.0835 16.0256 15.1039 16.0297 15.1244 16.0297C15.145 16.0297 15.1654 16.0256 15.1844 16.0175C15.2034 16.0095 15.2206 15.9977 15.2352 15.9828L16.0676 15.1338C16.0822 15.1189 16.0937 15.1013 16.1016 15.0819C16.1094 15.0625 16.1135 15.0416 16.1135 15.0206C16.1135 14.9996 16.1094 14.9788 16.1016 14.9593C16.0937 14.9399 16.0822 14.9223 16.0676 14.9074ZM9.5914 9.36267C8.78187 10.1882 7.70887 10.643 6.56713 10.643C5.4254 10.643 4.35239 10.1882 3.54287 9.36267C2.73525 8.53516 2.29039 7.43831 2.29039 6.2712C2.29039 5.10409 2.73525 4.00529 3.54287 3.17973C4.35239 2.35416 5.4254 1.89942 6.56713 1.89942C7.70887 1.89942 8.78378 2.35221 9.5914 3.17973C10.399 4.00724 10.8439 5.10409 10.8439 6.2712C10.8439 7.43831 10.399 8.53711 9.5914 9.36267Z" fill="#8A8A8A"/>
</svg>
