<svg width="17" height="17" viewBox="0 0 17 17" fill="none" xmlns="http://www.w3.org/2000/svg">
<path d="M16.0578 14.9073L11.0995 9.83876C11.8689 8.82193 12.2851 7.57871 12.2851 6.27108C12.2851 4.70582 11.6875 3.23815 10.6069 2.13155C9.52626 1.02494 8.08668 0.416016 6.55737 0.416016C5.02805 0.416016 3.58847 1.02689 2.50783 2.13155C1.42528 3.2362 0.82959 4.70582 0.82959 6.27108C0.82959 7.83438 1.42719 9.30595 2.50783 10.4106C3.58847 11.5172 5.02614 12.1261 6.55737 12.1261C7.83657 12.1261 9.05086 11.7007 10.0456 10.9161L15.0039 15.9827C15.0185 15.9975 15.0357 16.0093 15.0547 16.0174C15.0737 16.0254 15.0941 16.0296 15.1147 16.0296C15.1352 16.0296 15.1556 16.0254 15.1746 16.0174C15.1936 16.0093 15.2109 15.9975 15.2254 15.9827L16.0578 15.1337C16.0724 15.1188 16.0839 15.1012 16.0918 15.0818C16.0997 15.0623 16.1037 15.0415 16.1037 15.0205C16.1037 14.9995 16.0997 14.9786 16.0918 14.9592C16.0839 14.9398 16.0724 14.9222 16.0578 14.9073ZM9.58163 9.36255C8.77211 10.1881 7.6991 10.6429 6.55737 10.6429C5.41563 10.6429 4.34263 10.1881 3.5331 9.36255C2.72548 8.53503 2.28063 7.43818 2.28063 6.27108C2.28063 5.10397 2.72548 4.00517 3.5331 3.1796C4.34263 2.35404 5.41563 1.8993 6.55737 1.8993C7.6991 1.8993 8.77402 2.35209 9.58163 3.1796C10.3892 4.00712 10.8341 5.10397 10.8341 6.27108C10.8341 7.43818 10.3892 8.53699 9.58163 9.36255Z" fill="#8A8A8A"/>
</svg>
