<svg width="12" height="12" viewBox="0 0 12 12" fill="none" xmlns="http://www.w3.org/2000/svg">
<path fill-rule="evenodd" clip-rule="evenodd" d="M3.07156 0.319702C2.31922 0.319702 1.5977 0.618568 1.06571 1.15055C0.533729 1.68254 0.234863 2.40406 0.234863 3.1564V8.8298C0.234863 9.58214 0.533729 10.3037 1.06571 10.8356C1.5977 11.3676 2.31922 11.6665 3.07156 11.6665H8.74496C9.4973 11.6665 10.2188 11.3676 10.7508 10.8356C11.2828 10.3037 11.5817 9.58214 11.5817 8.8298V3.1564C11.5817 2.40406 11.2828 1.68254 10.7508 1.15055C10.2188 0.618568 9.4973 0.319702 8.74496 0.319702H3.07156ZM8.02444 5.24648C8.0754 5.19209 8.11515 5.1282 8.14142 5.05845C8.16768 4.9887 8.17996 4.91446 8.17753 4.83997C8.17511 4.76547 8.15804 4.69219 8.12729 4.62429C8.09654 4.5564 8.05273 4.49522 7.99834 4.44426C7.94395 4.3933 7.88006 4.35355 7.81031 4.32728C7.74056 4.30101 7.66632 4.28874 7.59183 4.29117C7.51733 4.29359 7.44405 4.31066 7.37615 4.34141C7.30826 4.37215 7.24708 4.41597 7.19612 4.47036L5.44701 6.33691L4.58295 5.5693C4.46975 5.47518 4.32439 5.42876 4.17759 5.43984C4.03079 5.45092 3.89404 5.51862 3.79624 5.62865C3.69843 5.73868 3.64723 5.88242 3.65344 6.02951C3.65965 6.1766 3.72279 6.31551 3.82953 6.4169L5.10604 7.55158C5.2165 7.64969 5.36086 7.70085 5.50845 7.69418C5.65604 7.6875 5.7952 7.62352 5.89635 7.51584L8.02387 5.24648H8.02444Z" fill="#0075FF"/>
</svg>
