<svg width="16" height="16" viewBox="0 0 16 16" fill="none" xmlns="http://www.w3.org/2000/svg">
<path fill-rule="evenodd" clip-rule="evenodd" d="M4.18001 0.659729C3.20938 0.659729 2.27851 1.04531 1.59218 1.73164C0.905843 2.41798 0.520264 3.34885 0.520264 4.31947V11.639C0.520264 12.6096 0.905843 13.5405 1.59218 14.2268C2.27851 14.9131 3.20938 15.2987 4.18001 15.2987H11.4995C12.4701 15.2987 13.401 14.9131 14.0873 14.2268C14.7737 13.5405 15.1592 12.6096 15.1592 11.639V4.31947C15.1592 3.34885 14.7737 2.41798 14.0873 1.73164C13.401 1.04531 12.4701 0.659729 11.4995 0.659729H4.18001ZM10.5699 7.01597C10.6357 6.9458 10.6869 6.86337 10.7208 6.77338C10.7547 6.6834 10.7706 6.58762 10.7674 6.49151C10.7643 6.3954 10.7423 6.30085 10.7026 6.21326C10.6629 6.12567 10.6064 6.04674 10.5362 5.981C10.4661 5.91525 10.3836 5.86397 10.2937 5.83008C10.2037 5.79619 10.1079 5.78035 10.0118 5.78348C9.91568 5.78661 9.82113 5.80863 9.73354 5.8483C9.64594 5.88797 9.56702 5.9445 9.50127 6.01466L7.24468 8.42278L6.12992 7.43245C5.98386 7.31103 5.79633 7.25114 5.60694 7.26543C5.41755 7.27972 5.24112 7.36707 5.11494 7.50903C4.98876 7.65098 4.9227 7.83643 4.93071 8.02619C4.93872 8.21595 5.02019 8.39517 5.15789 8.52598L6.80477 9.98988C6.94728 10.1165 7.13353 10.1825 7.32394 10.1738C7.51435 10.1652 7.69389 10.0827 7.82438 9.94376L10.5692 7.01597H10.5699Z" fill="#0075FF"/>
</svg>
