<svg width="10" height="10" viewBox="0 0 10 10" fill="none" xmlns="http://www.w3.org/2000/svg">
<path fill-rule="evenodd" clip-rule="evenodd" d="M3.15264 0.495514C2.55531 0.495514 1.98244 0.732804 1.56006 1.15518C1.13768 1.57756 0.900391 2.15043 0.900391 2.74777V7.25227C0.900391 7.8496 1.13768 8.42247 1.56006 8.84485C1.98244 9.26723 2.55531 9.50452 3.15264 9.50452H7.65715C8.25448 9.50452 8.82735 9.26723 9.24973 8.84485C9.67211 8.42247 9.9094 7.8496 9.9094 7.25227V2.74777C9.9094 2.15043 9.67211 1.57756 9.24973 1.15518C8.82735 0.732804 8.25448 0.495514 7.65715 0.495514H3.15264ZM7.08507 4.40723C7.12554 4.36404 7.1571 4.31331 7.17795 4.25793C7.19881 4.20256 7.20855 4.14361 7.20663 4.08447C7.2047 4.02532 7.19115 3.96713 7.16674 3.91323C7.14233 3.85932 7.10754 3.81075 7.06435 3.77029C7.02117 3.72983 6.97044 3.69827 6.91506 3.67741C6.85968 3.65655 6.80074 3.64681 6.74159 3.64873C6.68245 3.65066 6.62426 3.66421 6.57036 3.68863C6.51645 3.71304 6.46788 3.74783 6.42742 3.79101L5.03868 5.27299L4.35264 4.66353C4.26276 4.58881 4.14735 4.55195 4.0308 4.56075C3.91424 4.56954 3.80567 4.6233 3.72801 4.71066C3.65036 4.79802 3.6097 4.91215 3.61464 5.02893C3.61957 5.14571 3.6697 5.256 3.75444 5.3365L4.76796 6.23741C4.85565 6.31531 4.97028 6.35592 5.08746 6.35062C5.20464 6.34532 5.31513 6.29453 5.39544 6.20903L7.08462 4.40723H7.08507Z" fill="#0075FF"/>
</svg>
