<svg width="14" height="14" viewBox="0 0 14 14" fill="none" xmlns="http://www.w3.org/2000/svg">
<path fill-rule="evenodd" clip-rule="evenodd" d="M3.66665 0.333336C2.78259 0.333336 1.93474 0.684525 1.30962 1.30965C0.684502 1.93477 0.333313 2.78261 0.333313 3.66667V10.3333C0.333313 11.2174 0.684502 12.0652 1.30962 12.6904C1.93474 13.3155 2.78259 13.6667 3.66665 13.6667H10.3333C11.2174 13.6667 12.0652 13.3155 12.6903 12.6904C13.3155 12.0652 13.6666 11.2174 13.6666 10.3333V3.66667C13.6666 2.78261 13.3155 1.93477 12.6903 1.30965C12.0652 0.684525 11.2174 0.333336 10.3333 0.333336H3.66665ZM9.48665 6.12267C9.54653 6.05876 9.59324 5.98368 9.6241 5.90172C9.65497 5.81976 9.66939 5.73252 9.66654 5.64498C9.6637 5.55745 9.64364 5.47133 9.60751 5.39155C9.57138 5.31177 9.51989 5.23989 9.45598 5.18C9.39207 5.12012 9.31699 5.07341 9.23503 5.04254C9.15307 5.01168 9.06583 4.99725 8.97829 5.0001C8.89076 5.00295 8.80464 5.02301 8.72486 5.05914C8.64508 5.09527 8.5732 5.14676 8.51331 5.21067L6.45798 7.404L5.44265 6.502C5.30962 6.39141 5.13881 6.33687 4.96631 6.34988C4.79381 6.3629 4.63312 6.44245 4.51819 6.57175C4.40327 6.70104 4.3431 6.86995 4.35039 7.04279C4.35769 7.21563 4.43189 7.37886 4.55731 7.498L6.05731 8.83134C6.1871 8.94663 6.35675 9.00674 6.53017 8.9989C6.7036 8.99106 6.86713 8.91587 6.98598 8.78934L9.48598 6.12267H9.48665Z" fill="#0075FF"/>
</svg>
