<svg width="16" height="15" viewBox="0 0 16 15" fill="none" xmlns="http://www.w3.org/2000/svg">
<path d="M15.0579 13.9218L10.3979 9.05246C11.1211 8.07559 11.5122 6.88122 11.5122 5.62498C11.5122 4.12123 10.9506 2.71124 9.93499 1.64812C8.91939 0.584997 7.56644 0 6.12916 0C4.69188 0 3.33894 0.586872 2.32333 1.64812C1.30593 2.70936 0.746094 4.12123 0.746094 5.62498C0.746094 7.12684 1.30773 8.54059 2.32333 9.60183C3.33894 10.665 4.69009 11.25 6.12916 11.25C7.33138 11.25 8.47259 10.8412 9.40745 10.0875L14.0674 14.9549C14.0811 14.9692 14.0973 14.9806 14.1151 14.9883C14.133 14.996 14.1521 15 14.1715 15C14.1908 15 14.2099 14.996 14.2278 14.9883C14.2457 14.9806 14.2619 14.9692 14.2755 14.9549L15.0579 14.1393C15.0716 14.125 15.0824 14.1081 15.0898 14.0894C15.0972 14.0708 15.101 14.0508 15.101 14.0306C15.101 14.0104 15.0972 13.9904 15.0898 13.9717C15.0824 13.953 15.0716 13.9361 15.0579 13.9218V13.9218ZM8.97142 8.59496C8.21062 9.38808 7.20219 9.82496 6.12916 9.82496C5.05614 9.82496 4.04771 9.38808 3.2869 8.59496C2.52789 7.79997 2.1098 6.74622 2.1098 5.62498C2.1098 4.50373 2.52789 3.44811 3.2869 2.65499C4.04771 1.86187 5.05614 1.42499 6.12916 1.42499C7.20219 1.42499 8.21241 1.85999 8.97142 2.65499C9.73044 3.44998 10.1485 4.50373 10.1485 5.62498C10.1485 6.74622 9.73044 7.80184 8.97142 8.59496Z" fill="#8A8A8A"/>
</svg>
