<svg width="17" height="18" viewBox="0 0 17 18" fill="none" xmlns="http://www.w3.org/2000/svg">
<g clip-path="url(#clip0_1_1082)">
<path fill-rule="evenodd" clip-rule="evenodd" d="M12.3356 10.981C12.1245 10.8754 11.0897 10.3669 10.897 10.296C10.7043 10.2259 10.5641 10.1912 10.4231 10.4023C10.2829 10.6119 9.87983 11.0865 9.75729 11.2268C9.63404 11.3677 9.5115 11.3847 9.30113 11.2799C9.09075 11.1736 8.41217 10.9519 7.60821 10.2351C6.98275 9.67694 6.55988 8.98773 6.43733 8.77665C6.31479 8.56627 6.42388 8.45223 6.52942 8.3474C6.62433 8.25319 6.73979 8.1016 6.84533 7.97906C6.95088 7.85581 6.98558 7.76798 7.05571 7.62702C7.12654 7.48677 7.09113 7.36423 7.038 7.25869C6.98558 7.15315 6.56483 6.11686 6.38917 5.6954C6.21846 5.28527 6.04492 5.34123 5.916 5.33415C5.79275 5.32848 5.6525 5.32706 5.51225 5.32706C5.372 5.32706 5.14392 5.37948 4.95125 5.59056C4.75787 5.80094 4.21458 6.31023 4.21458 7.34652C4.21458 8.38211 4.96825 9.38298 5.07379 9.52394C5.17933 9.66419 6.55775 11.7906 8.66929 12.7022C9.17221 12.919 9.56392 13.0486 9.86921 13.1449C10.3735 13.3057 10.8325 13.2831 11.1952 13.2285C11.599 13.1683 12.4405 12.7192 12.6161 12.2276C12.7911 11.7361 12.7911 11.3146 12.7387 11.2268C12.6862 11.1389 12.546 11.0865 12.3349 10.981H12.3356ZM8.49504 16.2248H8.49221C7.23806 16.225 6.00693 15.8879 4.92788 15.2487L4.67288 15.0971L2.02229 15.7927L2.72992 13.2087L2.56346 12.9438C1.86231 11.8277 1.49125 10.536 1.49317 9.21794C1.49458 5.35752 4.63533 2.21677 8.49788 2.21677C10.3679 2.21677 12.126 2.94636 13.4477 4.26952C14.0996 4.91877 14.6164 5.69084 14.968 6.54107C15.3196 7.39131 15.4991 8.30283 15.4962 9.2229C15.4948 13.0833 12.354 16.2248 8.49504 16.2248ZM14.4535 3.2644C13.6731 2.4788 12.7445 1.8559 11.7216 1.4318C10.6986 1.00769 9.6017 0.790814 8.49433 0.79373C3.85192 0.79373 0.07225 4.57269 0.0708333 9.21723C0.0686821 10.6953 0.456432 12.1479 1.19496 13.4283L0 17.7937L4.46533 16.6221C5.70058 17.2951 7.08482 17.6478 8.4915 17.6478H8.49504C13.1375 17.6478 16.9171 13.8689 16.9185 9.22361C16.922 8.11667 16.7059 7.02005 16.2828 5.99717C15.8597 4.97429 15.2379 4.04545 14.4535 3.2644Z" fill="#0FA958"/>
</g>
<defs>
<clipPath id="clip0_1_1082">
<rect width="17" height="17" fill="white" transform="translate(0 0.793701)"/>
</clipPath>
</defs>
</svg>
